<?xml version="1.0" encoding="utf-8"?>
<!-- Generator: Adobe Illustrator 27.5.0, SVG Export Plug-In . SVG Version: 6.00 Build 0)  -->
<svg version="1.1" xmlns="http://www.w3.org/2000/svg" xmlns:xlink="http://www.w3.org/1999/xlink" x="0px" y="0px"
	 viewBox="0 0 750 500" style="enable-background:new 0 0 750 500;" xml:space="preserve">
<g id="BACKGROUND">
	<rect style="fill:#FFFFFF;" width="750" height="500"/>
	<path style="opacity:0.7098;fill:#E4EDD5;" d="M709.202,401.563c14.621-13.024,13.707-37.291,3.397-53.937
		c-10.31-16.646-27.555-27.519-44.112-37.971c-16.557-10.452-33.65-21.717-43.318-38.744c-11.06-19.478-10.581-43.095-12.53-65.409
		c-1.948-22.314-8.208-46.814-27.097-58.852c-13.987-8.914-31.598-8.85-48.046-10.978c-47.216-6.107-89.161-31.879-132.881-50.727
		c-43.719-18.848-95.494-30.608-137.833-8.835c-33.251,17.099-53.549,51.13-78.353,79.107
		c-33.591,37.888-77.065,65.915-111.146,103.362c-34.081,37.448-58.665,90.392-42.439,138.356L709.202,401.563z"/>
</g>
<g id="OBJECTS">
	<g>
		<g>
			<rect x="336.873" y="310.639" style="fill:#2C414D;" width="16.536" height="92.667"/>
			<path style="fill:#FFFFFF;stroke:#2C414D;stroke-width:2;stroke-miterlimit:10;" d="M196.35,313.501V111.553
				c0-7.54,6.112-13.652,13.652-13.652h270.284c7.54,0,13.652,6.112,13.652,13.652v201.949c0,7.54-6.112,13.652-13.652,13.652
				H210.002C202.462,327.153,196.35,321.041,196.35,313.501z"/>
		</g>
		<g>
			<circle style="fill:#91C248;" cx="268.797" cy="150.063" r="36.171"/>
			<path style="fill:#EF4136;" d="M301.799,135.286l-34.526,15.371c0,0,1.048-28.325,1.521-36.764
				C283.509,113.892,296.16,122.672,301.799,135.286z"/>
			<path style="fill:#62A5CC;" d="M303.753,159.362c-4.093,15.47-18.19,26.871-34.959,26.871
				c-2.168-16.963-3.685-37.123-3.685-37.123L303.753,159.362z"/>
			<path style="fill:#2F6582;" d="M269.87,186.209c-0.359,0.025-0.717,0.025-1.076,0.025c-12.889,0-24.207-6.747-30.614-16.901
				c1.97-2.779,27.459-21.542,30.453-22.115L269.87,186.209z"/>
			<path style="fill:#FFC61C;" d="M283.621,117.07l-14.975,32.989c0,0-27.033,23.663-27.066,23.828
				c-5.578-6.367-8.956-14.702-8.956-23.824c0-19.971,16.199-36.171,36.171-36.171C274.074,113.892,279.095,115.03,283.621,117.07z"
				/>
		</g>
		<g>
			
				<line style="fill:none;stroke:#2C414D;stroke-linecap:round;stroke-linejoin:round;stroke-miterlimit:10;" x1="222.706" y1="213.029" x2="466.287" y2="213.025"/>
			
				<line style="fill:none;stroke:#2C414D;stroke-linecap:round;stroke-linejoin:round;stroke-miterlimit:10;" x1="222.706" y1="223.155" x2="466.287" y2="223.151"/>
			
				<line style="fill:none;stroke:#2C414D;stroke-linecap:round;stroke-linejoin:round;stroke-miterlimit:10;" x1="222.706" y1="253.531" x2="466.287" y2="253.527"/>
			
				<line style="fill:none;stroke:#2C414D;stroke-linecap:round;stroke-linejoin:round;stroke-miterlimit:10;" x1="222.706" y1="233.28" x2="466.287" y2="233.276"/>
			
				<line style="fill:none;stroke:#2C414D;stroke-linecap:round;stroke-linejoin:round;stroke-miterlimit:10;" x1="222.706" y1="243.406" x2="466.287" y2="243.402"/>
		</g>
		<g>
			<path style="fill:none;stroke:#2C414D;stroke-linecap:round;stroke-linejoin:round;stroke-miterlimit:10;" d="M272.624,277.438
				c-22.146,10.018-24.261,33.935,5.182,23.589c22.253-7.819,46.405-39.268,9.413-34.559c-11.927,1.518-24.088,6.621-32.897,14.785"
				/>
			<path style="fill:none;stroke:#2C414D;stroke-linecap:round;stroke-linejoin:round;stroke-miterlimit:10;" d="M347.152,258.455
				c-6.891,6.397-12.075,17.057-16.486,22.444c-5.458,6.666-17.844,16.216-29.923,17.094"/>
			<path style="fill:none;stroke:#2C414D;stroke-linecap:round;stroke-linejoin:round;stroke-miterlimit:10;" d="M333.696,261.522
				c4.444-1.163,8.989-1.991,13.546-3.316c0.977,3.696,1.996,11.615,1.996,11.615"/>
		</g>
		<g>
			<path style="fill:none;stroke:#2C414D;stroke-linecap:round;stroke-linejoin:round;stroke-miterlimit:10;" d="M333.448,122.971
				c-1.684,6.722-8.611,21.933-8.611,21.933"/>
			<path style="fill:none;stroke:#2C414D;stroke-linecap:round;stroke-linejoin:round;stroke-miterlimit:10;" d="M340.605,128.885
				c-4.073,6.18-10.667,18.282-10.667,18.282"/>
			<path style="fill:#2C414D;" d="M326.774,151.15c0-0.456,0.37-0.827,0.827-0.827c0.457,0,0.827,0.37,0.827,0.827
				c0,0.457-0.37,0.827-0.827,0.827C327.144,151.977,326.774,151.606,326.774,151.15z"/>
			<path style="fill:#2C414D;" d="M321.538,149.221c0-0.456,0.37-0.827,0.827-0.827c0.456,0,0.827,0.37,0.827,0.827
				c0,0.457-0.37,0.827-0.827,0.827C321.909,150.048,321.538,149.678,321.538,149.221z"/>
			<path style="fill:none;stroke:#2C414D;stroke-linecap:round;stroke-linejoin:round;stroke-miterlimit:10;" d="M325.552,123.054
				c-1.781,7.339-6.778,20.049-6.778,20.049"/>
			<path style="fill:#2C414D;" d="M316.473,147.02c-0.084-0.449,0.212-0.88,0.661-0.964s0.88,0.212,0.964,0.661
				c0.084,0.449-0.212,0.881-0.661,0.964C316.988,147.765,316.556,147.469,316.473,147.02z"/>
		</g>
		<g>
			<path style="fill:none;stroke:#2C414D;stroke-linecap:round;stroke-linejoin:round;stroke-miterlimit:10;" d="M458.28,151.841
				c-0.899-6.703,14.071-8.585,12.232-0.975c-1.054,4.361-6.697,5.309-5.781,10.974"/>
			<path style="fill:none;stroke:#2C414D;stroke-linecap:round;stroke-linejoin:round;stroke-miterlimit:10;" d="M464.921,165.702
				c-0.044,0.101-0.043,0.197,0.002,0.287c0.139-0.067,0.357-0.448,0.191-0.565c-0.135-0.095-0.283,0.034-0.329,0.156
				c-0.069,0.185,0.073,0.397,0.289,0.335C465.214,165.876,465.326,165.634,464.921,165.702z"/>
		</g>
		<g>
			<rect x="366.115" y="128.244" style="fill:#91C248;" width="12.124" height="61.722"/>
			<rect x="389.356" y="150.288" style="fill:#EF4136;" width="12.124" height="39.678"/>
			<rect x="412.596" y="137.061" style="fill:#F7941D;" width="12.124" height="52.904"/>
			<rect x="435.837" y="119.427" style="fill:#FFC61C;" width="12.124" height="70.539"/>
			
				<line style="fill:none;stroke:#242424;stroke-width:1.5;stroke-linecap:round;stroke-linejoin:round;stroke-miterlimit:10;" x1="354.685" y1="190.241" x2="459.391" y2="190.241"/>
		</g>
	</g>
	<g>
		<g>
			<path style="fill:#2C414D;" d="M173.882,406.724H71.867c0.329-6.332,0.741-9.812,1.215-16.474
				c1.689-23.517,4.304-48.259,8.402-68.192c0.865-4.283,1.812-8.35,2.831-12.15l29.952,3.037h0.01l0.401,0.041h0.052l15.784,1.606
				l6.651,0.68h0.01l1.256,0.124l28.14,2.852c0.031,0.319,0.062,0.649,0.093,0.978v0.031c0,0.041,0.01,0.082,0.01,0.124
				c1.987,18.544,4.057,45.087,5.879,70.869C173.017,396.871,173.46,400.351,173.882,406.724z"/>
			<path style="fill:none;stroke:#1D282E;stroke-linecap:round;stroke-linejoin:round;stroke-miterlimit:10;" d="M131.882,333.795
				c1.578,24.006,0.981,48.695,0.97,63.662"/>
			<path style="fill:none;stroke:#1D282E;stroke-linecap:round;stroke-linejoin:round;stroke-miterlimit:10;" d="M104.352,332.357
				c-4.194,13.024-16.826,17.216-17.44,17.855"/>
		</g>
		<g>
			<path style="fill:#995C42;" d="M157.488,188.201c-0.573-18.74,1.36-30.547-6.233-33.152c-4.556-1.563-18.568-4.382-31.244,3.103
				c-20.364,12.024-12.862,37.356-12.815,53.655c2.396,9.827,11.699,16.13,20.283,21.477c3.893-6.451,7.868-12.532,11.843-18.614
				c-0.418-3.596-0.467-7.089-0.123-10.473C149.711,207.225,157.838,199.645,157.488,188.201z"/>
		</g>
		<path style="fill:#332828;" d="M132.06,175.401c-13.973-12.813-24.635,15.193-5.234,14.251
			c-1.715,13.312-15.229,11.135-20.614,8.212c-5.054-18.8-3.282-42.917,4.569-47.813c12.722-7.934,40.664-6.913,44.873,9.274
			C139.452,158.692,136.207,163.021,132.06,175.401z"/>
		<g>
			<path style="fill:#B0D5EB;" d="M235.658,215.335l-28.617,34.596c-9.719-9.492-19.552-19.073-31.178-26.101
				c-10.801-6.529-23.718-10.9-36.235-9.88c-0.146-0.922,0.053-2.675-0.048-4.057c-7.113,1.083-24.25-0.083-33.044-1.289
				c-0.004,0.044,0.283,3.529,0.221,3.495c-8.218,0.229-25.46,2.97-29.877,7.625c-14.986,15.793-42.31,63.353-30.429,81.597
				c15.334,23.548,59.832,24.11,59.832,24.11l3.378-5.047c12.858,0.227,57-0.05,57-0.05l0.613-46.814
				c8.305,6.807,30.696,23.211,49.764,19.62c21.766-4.1,43.717-62.455,43.717-62.455L235.658,215.335z"/>
		</g>
		<path style="fill:none;stroke:#62A5CC;stroke-linecap:round;stroke-linejoin:round;stroke-miterlimit:10;" d="M78.691,279.646
			c17.899,4.905,44.054,23.465,44.054,23.465c-0.276,0.276-9.948,9.446-16.162,22.532"/>
		<path style="fill:none;stroke:#62A5CC;stroke-linecap:round;stroke-linejoin:round;stroke-miterlimit:10;" d="M92.351,266.067
			c-2.609,4.877-4.888,9.931-6.816,15.116"/>
		<path style="fill:none;stroke:#62A5CC;stroke-linecap:round;stroke-linejoin:round;stroke-miterlimit:10;" d="M169.23,259.883
			c-1.199,5.293-1.897,10.7-2.082,16.124"/>
		<path style="fill:none;stroke:#62A5CC;stroke-linecap:round;stroke-linejoin:round;stroke-miterlimit:10;" d="M201.567,244.828
			c3.744,3.338,7.285,6.904,10.595,10.673"/>
		<path style="fill:none;stroke:#62A5CC;stroke-linecap:round;stroke-linejoin:round;stroke-miterlimit:10;" d="M125.187,210.059
			c0.822,33.825,6.975,77.44,5.082,110.148"/>
		<circle style="fill:#62A5CC;" cx="130.464" cy="234.667" r="1.929"/>
		<circle style="fill:#62A5CC;" cx="129.362" cy="218.41" r="1.929"/>
		<circle style="fill:#62A5CC;" cx="131.29" cy="251.475" r="1.929"/>
		<path style="fill:#62A5CC;" d="M130.739,268.008c0-1.065,0.864-1.929,1.929-1.929c1.065,0,1.929,0.864,1.929,1.929
			c0,1.065-0.864,1.929-1.929,1.929C131.603,269.936,130.739,269.073,130.739,268.008z"/>
		<circle style="fill:#62A5CC;" cx="134.321" cy="285.367" r="1.929"/>
		<path style="fill:#62A5CC;" d="M132.668,303.002c0-1.065,0.864-1.929,1.929-1.929c1.065,0,1.929,0.864,1.929,1.929
			c0,1.065-0.864,1.929-1.929,1.929C133.532,304.931,132.668,304.067,132.668,303.002z"/>
		<path style="fill:#332828;" d="M142.818,178.666c0-1.025,0.61-1.857,1.362-1.857c0.752,0,1.362,0.831,1.362,1.857
			c0,1.025-0.61,1.857-1.362,1.857C143.428,180.523,142.818,179.691,142.818,178.666z"/>
		<path style="fill:#332828;" d="M155.228,177.18c0-1.025,0.61-1.857,1.361-1.857c0.752,0,1.362,0.831,1.362,1.857
			c0,1.025-0.61,1.857-1.362,1.857C155.838,179.037,155.228,178.206,155.228,177.18z"/>
		<path style="fill:none;stroke:#784630;stroke-linecap:round;stroke-linejoin:round;stroke-miterlimit:10;" d="M150.908,176.469
			c-0.63,2.424-0.18,5.107,1.206,7.194c0.432,0.65,0.972,1.312,0.955,2.092c-0.018,0.871-0.825,1.616-1.694,1.668
			s-1.712-0.518-2.092-1.301"/>
		<path style="fill:none;stroke:#784630;stroke-linecap:round;stroke-linejoin:round;stroke-miterlimit:10;" d="M121.932,177.199
			c1.763-0.37,3.6,0.524,4.83,1.84c1.23,1.316,1.971,3.003,2.689,4.655"/>
		<g>
			<path style="fill:#995C42;" d="M159.646,345.181c-1.056,0.772-2.567-0.01-3.601-0.813c-3.612-2.841-6.824-6.135-9.869-10.489
				c1.245,4.581,2.49,9.161,3.723,13.753c0.367,1.338,0.733,2.728,0.522,4.107c-0.211,1.369-1.145,2.749-2.59,3.109
				c-1.267,0.319-2.634-0.206-3.557-1.06c-0.922-0.865-1.467-2.007-1.878-3.15c0.389,1.462-1.089,2.954-2.712,3.078
				c-1.611,0.124-3.156-0.823-4.09-2.059c-0.934-1.225-1.378-2.707-1.801-4.159c-0.678,0.71-1.845,0.865-2.812,0.587
				c-0.978-0.278-1.778-0.916-2.49-1.596c-4.257-4.066-5.946-9.861-9.391-14.545c-2.523-3.428-10.31-8.111-10.788-8.461
				c3.745-6.897,7.865-13.506,13.733-18.992c14.537,7.7,26.807,18.755,35.187,32.179c1.134,1.801,2.189,3.654,2.834,5.651
				C160.391,343.297,160.513,344.553,159.646,345.181z"/>
			<path style="fill:none;stroke:#784630;stroke-linecap:round;stroke-linejoin:round;stroke-miterlimit:10;" d="M148.075,340.351
				c-1.611-7.197-5.728-13.894-11.589-18.85"/>
			<path style="fill:none;stroke:#784630;stroke-linecap:round;stroke-linejoin:round;stroke-miterlimit:10;" d="M142.456,351.815
				c-1.224-9.162-4.933-18.031-10.692-25.566"/>
			<path style="fill:none;stroke:#784630;stroke-linecap:round;stroke-linejoin:round;stroke-miterlimit:10;" d="M133.667,348.008
				c-0.582-6.398-2.812-12.663-6.452-18.127"/>
		</g>
		<path style="fill:none;stroke:#784630;stroke-linecap:round;stroke-linejoin:round;stroke-miterlimit:10;" d="M134.031,199.682
			c1.777,2.266,3.693,4.117,7.014,4.542"/>
		<path style="fill:none;stroke:#332828;stroke-linecap:round;stroke-linejoin:round;stroke-miterlimit:10;" d="M146.556,172.046
			c-2.719-0.621-5.766,0.665-7.216,3.047"/>
		<path style="fill:none;stroke:#332828;stroke-linecap:round;stroke-linejoin:round;stroke-miterlimit:10;" d="M154.191,170.948
			c1.16-0.681,3.189-0.36,4.027,1.186"/>
		<path style="fill:#995C42;" d="M235.001,217.5c8.445-9.397,19.716-16.223,31.961-19.337c1.611-0.41,3.339-0.752,4.909-0.204
			c1.569,0.549,2.826,2.319,1.78,4.198c4.967-1.598,10.188-2.401,15.406-2.37c1.157,0.007,2.35,0.063,3.401,0.549
			c1.05,0.486,1.934,1.501,1.931,2.658c1.175-0.315,2.442-0.425,3.597-0.044c1.155,0.381,2.172,1.323,2.401,2.517
			c0.229,1.194-0.51,2.565-1.698,2.824c1.463-0.045,2.216,1.993,1.547,3.296c-0.669,1.302-2.118,1.971-3.464,2.547
			c-3.076,1.317-6.152,2.633-9.228,3.95c1.116,0.304,2.299,0.06,3.431-0.178c1.132-0.238,2.321-0.468,3.429-0.137
			c1.108,0.33,2.082,1.418,1.869,2.554c-0.154,0.818-0.846,1.416-1.531,1.888c-4.415,3.048-9.878,3.37-15.374,4.029
			c-9.512,1.14-19.55,4.692-19.55,4.692s-7.933-0.097-15.365-4.096C240.997,224.979,236.59,219.923,235.001,217.5z"/>
		<path style="fill:none;stroke:#784630;stroke-linecap:round;stroke-linejoin:round;stroke-miterlimit:10;" d="M298.923,208.709
			c-12.033,2.484-30.104,6.294-30.104,6.294"/>
		<path style="fill:none;stroke:#784630;stroke-linecap:round;stroke-linejoin:round;stroke-miterlimit:10;" d="M288.624,218.003
			c-5.915,1.307-11.358,1.689-17.097,2.627"/>
		<path style="fill:none;stroke:#784630;stroke-linecap:round;stroke-linejoin:round;stroke-miterlimit:10;" d="M294.639,203.208
			c-11.384,1.396-28.633,5.839-28.633,5.839"/>
		<path style="fill:none;stroke:#784630;stroke-linecap:round;stroke-linejoin:round;stroke-miterlimit:10;" d="M274.01,202.256
			c-5.579,0.439-12.152,2.706-12.152,2.706"/>
		<path style="fill:none;stroke:#784630;stroke-linecap:round;stroke-linejoin:round;stroke-miterlimit:10;" d="M260.086,207.169
			c2.019,2.66,4.24,9.825,0.792,14.372"/>
		<path style="fill:#663D2B;" d="M142.739,188.544c-0.041,1.376,0.36,2.762,1.129,3.903c0.331,0.491,0.754,0.955,1.314,1.145
			c0.654,0.222,1.391,0.028,1.971-0.347c0.579-0.376,1.031-0.914,1.473-1.445L142.739,188.544z"/>
	</g>
	<path style="fill:#BF9C71;" d="M729.903,399.466v1.133c0,5.086-5.581,9.215-12.458,9.215H32.555
		c-6.878,0-12.459-4.129-12.459-9.215v-1.133c0-5.097,5.581-9.215,12.459-9.215h684.89
		C724.323,390.25,729.903,394.369,729.903,399.466z"/>
	<g>
		<path style="fill:#BA785B;" d="M350.107,338.742c0.125-4.315,0.948-9.54,2.992-13.342c0.364-0.678,0.886-1.392,1.65-1.478
			c0.597-0.068,1.179,0.29,1.539,0.771c0.36,0.481,0.539,1.07,0.703,1.648c1.213,4.289,1.932,8.717,2.136,13.17
			C356.371,340.318,350.338,338.351,350.107,338.742z"/>
		<path style="fill:none;stroke:#191436;stroke-linecap:round;stroke-linejoin:round;stroke-miterlimit:10;" d="M450.999,247.237
			c-0.291,3.822-0.59,7.688-1.78,11.331c-1.19,3.644-3.38,7.101-6.677,9.056"/>
		<path style="fill:none;stroke:#191436;stroke-linecap:round;stroke-linejoin:round;stroke-miterlimit:10;" d="M506.083,237.148
			c1.609,11.005,7.709,21.286,16.598,27.971"/>
		<path style="fill:#191436;" d="M449.875,254.194c0.307,6.094-2.452,12.265-7.03,16.689c2.947,4.667,7.509,8.293,12.721,10.11
			c5.212,1.817,11.039,1.813,16.249-0.011l0.452-19.593L449.875,254.194z"/>
		<path style="fill:#BA785B;" d="M474.129,210.974c-5.893,0.21-11.966,0.871-16.167,5.009c-4.201,4.138-6.547,9.865-7.592,15.669
			c-1.046,5.803-0.892,11.747-0.736,17.642c0.123,4.64,0.334,9.564,2.935,13.409c2.068,3.056,5.58,5.087,9.26,5.354
			c3.68,0.267,7.449-1.235,9.259-3.111c16.608-14.198,23.83-13.205,28.84-21.914C501.312,240.628,477.013,210.871,474.129,210.974z"
			/>
		<ellipse style="fill:#191436;" cx="453.899" cy="241.602" rx="1.362" ry="1.857"/>
		<path style="fill:#191436;" d="M465.894,242.723c0-1.025,0.61-1.857,1.362-1.857c0.752,0,1.362,0.831,1.362,1.857
			c0,1.025-0.61,1.857-1.362,1.857C466.503,244.579,465.894,243.748,465.894,242.723z"/>
		<path style="fill:#BA785B;" d="M468.598,260.643c-0.059,5.302-0.117,10.603-0.176,15.905c0,0-5.98,0.773-5.583,0.805
			c3.446,10.784,11.356,28.646,18.668,37.944c7.865-8.787,22.336-26.322,18.609-39.066c-1.825,0.063-5.354,0.236-7.954-0.361
			l-5.941-24.221L468.598,260.643z"/>
		<path style="fill:#FFC61C;" d="M464.715,277.052c-9.611,1.197-18.295,5.189-26.072,10.961
			c-7.777,5.772-19.406,15.108-27.764,20.002c0,0,5.911,47.429,5.663,47.43c10.578-7.05,26.456-19.432,35.266-26.455
			c0,0-3.824,21.033,7.858,27.783c-4.13,9.22-16.915,33.509-16.915,33.509l86.22-0.007l-5.634-59.972l5.946,18.427
			c0,0,44.696-14.99,44.288-14.696c-8-18.2-15.117-32.056-27.845-43.303c-12.728-11.247-30.409-13.644-47.23-14.927
			c-4.906,10.764-11.013,20.981-18.456,30.393C473.202,297.077,467.817,287.972,464.715,277.052z"/>
		<g>
			<path style="fill:#2F6582;" d="M365.874,384.11l-15.71-81.083c-0.424-2.188,1.252-4.22,3.481-4.22h54.499
				c1.698,0,3.158,1.204,3.481,2.871l15.71,81.083c0.424,2.188-1.252,4.22-3.481,4.22h-54.499
				C367.656,386.981,366.196,385.777,365.874,384.11z"/>
			<path style="fill:none;stroke:#2C414D;stroke-miterlimit:10;" d="M387.874,327.556c-1.245,6.759-2.491,13.518-3.992,20.818
				c-2.687-1.399-3.362-5.154-2.274-7.981s3.454-4.934,5.737-6.925c1.173,2.717,2.194,5.631,1.881,8.573
				c-0.313,2.943-2.32,5.894-5.235,6.402"/>
			<path style="fill:#2C414D;" d="M363.912,300.858l-0.906-3.807h28.657l0.622,2.614c0.385,1.618-0.842,3.172-2.506,3.172h-23.361
				C365.225,302.837,364.188,302.018,363.912,300.858z"/>
		</g>
		<g>
			<path style="fill:#EBD7CE;" d="M451.524,391.348c1.685-8.258,5.67-22.399,27.894-31.765c0.683-0.288,16.241,21.162,17.461,28.662
				l-10.73,1.269L451.524,391.348z"/>
			<path style="fill:#EBD7CE;" d="M499.923,392.942c-14.891-7.995-33.442-8.802-48.348-1.775
				c-13.782-8.016-32.03-7.636-45.467,0.945L499.923,392.942z"/>
			<path style="fill:none;stroke:#B3A49D;stroke-linecap:round;stroke-linejoin:round;stroke-miterlimit:10;" d="M495.308,391.145
				c-8.824-4.812-19.157-6.807-29.139-5.625c-5.612,0.664-11.439,2.524-15.044,6.876"/>
			<path style="fill:none;stroke:#B3A49D;stroke-linecap:round;stroke-linejoin:round;stroke-miterlimit:10;" d="M490.263,391.917
				c-5.463-3.091-11.761-4.69-18.037-4.579c-6.276,0.111-12.513,1.931-17.864,5.213"/>
			<path style="fill:none;stroke:#B3A49D;stroke-linecap:round;stroke-linejoin:round;stroke-miterlimit:10;" d="M451.581,392.188
				c-12.17-5.71-26.874-5.722-39.053-0.031"/>
			
				<line style="fill:none;stroke:#2C414D;stroke-width:1.5;stroke-linecap:round;stroke-linejoin:round;stroke-miterlimit:10;" x1="404.765" y1="392.478" x2="500.103" y2="392.478"/>
		</g>
		<path style="fill:#191436;" d="M486.751,210.314c-7.932-3.074-17.148-2.654-24.768,1.128c-7.62,3.782-11.32,7.637-13.122,18.216
			c15.366,1.462,22.659,0.25,33.602-1.354c-0.637,4.361-0.819,6.214-1.261,9.707c1.428-2.162,3.625-3.884,6.164-4.402
			c2.539-0.517,5.392,0.308,7.012,2.33c2.145,2.678,1.678,6.745-0.168,9.637c-1.847,2.892-4.784,4.878-7.639,6.782
			c0,0-2.093,14.612-1.836,25.099c18.635,2.624,34.69-9.95,34.982-10.701c-4.251-4.758-9.459-13.882-11.165-20.03
			c-1.418-5.11-0.849-10.57-1.859-15.776C504.705,220.726,495.624,213.752,486.751,210.314z"/>
		<path style="fill:none;stroke:#E3A427;stroke-linecap:round;stroke-linejoin:round;stroke-miterlimit:10;" d="M478.913,341.695
			c-0.483,11.303,8.496,14.097,14.472,12.044"/>
		<path style="fill:#BA785B;" d="M533.676,351.813c-11.604-0.705-23.315-1.405-34.803,0.374
			c-11.489,1.779-22.895,6.258-31.025,14.568c-2.105,2.151-4.047,4.717-4.126,8.386c-0.278,2.037-2.566,3.713-1.985,5.685
			c0.434,1.473,2.196,2.02,3.688,2.209c-0.274,1.749,1.392,3.319,3.138,3.611c1.746,0.291,3.5-0.334,4.474-1.009
			c0.563,1.391,2.116,2.18,3.614,2.262c1.498,0.082,2.963-0.412,4.368-0.936c4.933-1.839,9.698-4.13,14.227-6.383
			c18.034,5.267,37.013,6.234,55.794,6.74c4.204,0.113,8.441,0.203,12.583-0.525c4.142-0.728,8.23-2.336,11.287-5.224
			c3.693-3.487,5.578-8.584,5.949-13.65c0.37-5.066-0.301-10.252-2.062-15.016c-3.337-9.025-5.511-16.002-8.643-20.836
			c-10.854,6.512-28.722,6.292-38.639,14.157"/>
		<path style="fill:none;stroke:#995C42;stroke-linecap:round;stroke-linejoin:round;stroke-miterlimit:10;" d="M459.669,240.024
			c0.547,1.225,0.546,2.646,0.199,3.942c-0.347,1.296-1.02,2.482-1.779,3.588c-0.333,0.485-0.688,0.967-0.872,1.525
			c-0.184,0.558-0.167,1.221,0.202,1.678c0.551,0.682,1.584,0.64,2.454,0.536"/>
		<path style="fill:none;stroke:#995C42;stroke-linecap:round;stroke-linejoin:round;stroke-miterlimit:10;" d="M461.462,256.479
			c2.149,0.389,4.483-0.93,5.257-2.973"/>
		<path style="fill:none;stroke:#995C42;stroke-linecap:round;stroke-linejoin:round;stroke-miterlimit:10;" d="M489.348,238.382
			c-3.443,1.007-6.145,4.184-6.585,7.745c0.923-1.511,2.415-2.664,4.109-3.177c0.798-0.241,1.813-0.277,2.308,0.393
			c0.362,0.489,0.294,1.18,0.065,1.744c-0.649,1.592-2.312,2.5-3.901,3.157"/>
		<path style="fill:none;stroke:#191436;stroke-linecap:round;stroke-linejoin:round;stroke-miterlimit:10;" d="M466.747,233.87
			c3.461-0.8,6.302,2.326,6.568,3.733"/>
		<path style="fill:none;stroke:#191436;stroke-linecap:round;stroke-linejoin:round;stroke-miterlimit:10;" d="M458.46,233.602
			c-2.544-0.587-5.383,0.372-7.048,2.384"/>
		<path style="fill:none;stroke:#E3A427;stroke-linecap:round;stroke-linejoin:round;stroke-miterlimit:10;" d="M530.204,346.985
			c5.456-4.716,12.631-6.859,19.635-8.579c7.004-1.72,14.227-3.201,20.398-6.933"/>
		<path style="fill:none;stroke:#E3A427;stroke-linecap:round;stroke-linejoin:round;stroke-miterlimit:10;" d="M521.578,325.045
			c0.208,0.778,3.616,9.177,3.616,9.177"/>
		<path style="fill:none;stroke:#995C42;stroke-linecap:round;stroke-linejoin:round;stroke-miterlimit:10;" d="M492.2,374.585
			c-6.669,3.295-13.166,6.939-19.456,10.911"/>
		<path style="fill:none;stroke:#995C42;stroke-linecap:round;stroke-linejoin:round;stroke-miterlimit:10;" d="M485.443,369.713
			c-7.183,3.607-13.92,8.102-20.009,13.349"/>
		<path style="fill:none;stroke:#995C42;stroke-linecap:round;stroke-linejoin:round;stroke-miterlimit:10;" d="M482.425,363.689
			c-6.996,3.261-13.222,7.307-18.936,12.497"/>
		<path style="fill:none;stroke:#E3A427;stroke-linecap:round;stroke-linejoin:round;stroke-miterlimit:10;" d="M457.382,279.088
			c-1.757,0.406-3.16,1.505-3.504,2.56c-0.365,1.116,1.494,1.704,2.663,1.815c1.168,0.11,2.558,0.198,3.156,1.208
			c1.066,1.799-1.646,4.223-0.544,6c0.975,1.571,3.717,0.667,5,1.999c1.842,1.912-1.46,5.521,0.211,7.584
			c1.23,1.517,4.028,0.633,5.318,2.099c0.937,1.064,0.522,2.698,0.15,4.066c-0.373,1.368-0.507,3.137,0.687,3.901
			c1.101,0.705,2.601,0.043,3.845,0.445c1.253,0.405,1.923,1.773,2.193,3.062c0.27,1.289,0.29,2.656,0.874,3.836
			c0.584,1.18,2.025,2.102,3.212,1.531"/>
		<path style="fill:none;stroke:#E3A427;stroke-linecap:round;stroke-linejoin:round;stroke-miterlimit:10;" d="M505.352,276.912
			c-1.434-0.159-3.024,1.048-3.102,2.553c-0.088,1.709,0.208,3.625-0.842,4.977c-1.322,1.702-4.417,1.688-5.075,3.74
			c-0.656,2.047,1.858,4.37,0.733,6.202c-1.152,1.875-4.948,0.994-5.466,3.133c-0.384,1.582,1.708,2.896,1.512,4.511
			c-0.289,2.382-4.643,2.003-5.351,4.296c-0.441,1.426,0.904,2.832,0.855,4.324c-0.066,2.041-1.988,3.155-4.896,3.505
			c-2.545,0.307-3.975,3.569-2.931,5.324"/>
		
			<line style="fill:none;stroke:#E3A427;stroke-linecap:round;stroke-linejoin:round;stroke-miterlimit:10;" x1="443.101" y1="335.293" x2="452.736" y2="327.609"/>
		<g>
			<g>
				<path style="fill:#BA785B;" d="M364.185,359.418c8.53-0.381,7.121-7.283-0.454-6.841c8.186-2.853,3.001-8.026-2.393-7.701
					c6.551-1.899,3.987-5.628,0.458-6.345c-3.71-0.754-7.298-1.82-13.009-0.612c-4.33,0.915-9.58,6.023-3.896,10.819
					c-1.824,2.7-0.57,6.654,2.343,8.001c-2.188,2.46-0.304,6.663,2.987,6.669c-1.67,7.625,9.793,5.23,17.108,2.435
					C373.018,363.669,371.606,359.517,364.185,359.418z"/>
			</g>
			<path style="fill:none;stroke:#995C42;stroke-linecap:round;stroke-linejoin:round;stroke-miterlimit:10;" d="M345.429,348.946
				c3.527-2.779,11.827-3.55,16.508-3.546"/>
			<path style="fill:none;stroke:#995C42;stroke-linecap:round;stroke-linejoin:round;stroke-miterlimit:10;" d="M347.906,356.864
				c4.122-2.346,11.842-4.424,17.458-3.775"/>
			<path style="fill:none;stroke:#995C42;stroke-linecap:round;stroke-linejoin:round;stroke-miterlimit:10;" d="M350.753,363.727
				c2.547-1.562,7.986-4.092,14.672-3.84"/>
			<path style="fill:none;stroke:#995C42;stroke-linecap:round;stroke-linejoin:round;stroke-miterlimit:10;" d="M345.343,340.062
				c2.721-2.452,11.553-3.552,17.207-1.039"/>
		</g>
	</g>
	<g>
		<g>
			<path style="fill:#2F6582;" d="M297.743,320.055l-68.612-0.107c-10.35-0.016-19.348,7.099-21.717,17.174l-12.47,47.556
				l-66.642,0.211l1.302,3.783c1.547,2.931,4.449,4.751,7.602,4.767l113.247,0.605l33.852,0.309
				c6.654,0.428,12.703-3.848,14.519-10.263l12.917-45.634C314.289,329.207,307.338,320.069,297.743,320.055z"/>
		</g>
		<line style="fill:none;stroke:#2C414D;stroke-miterlimit:10;" x1="185.945" y1="385.442" x2="292.804" y2="385.86"/>
		<path style="fill:none;stroke:#2C414D;stroke-miterlimit:10;" d="M264.098,344.008c-3.856,5.69-7.712,11.379-12.019,17.461
			c-1.898-2.361-1.008-6.071,1.124-8.222c2.132-2.152,5.145-3.13,8.036-4.037c-0.017,2.959-0.253,6.038-1.722,8.607
			c-1.469,2.569-4.492,4.466-7.366,3.76"/>
	</g>
	<g>
		<g>
			<path style="fill:#E09A7B;" d="M648.929,260.012c-0.104-2.684-0.427-5.36-0.965-7.992c-0.259-1.268-0.607-2.597-1.534-3.5
				c-1.344-1.311-3.466-1.327-5.326-1.075c-1.234,0.167-2.464,0.435-3.662,0.796c-2.61-8.974-8.907-15.699-17.112-16.984
				c-12.404-1.942-17.849,11.209-20.321,26.996c-2.472,15.786-3.408,28.51,11.37,30.172c2.045,0.23,4.077,0.129,6.056-0.26
				c0.187,3.779,0.373,7.557,0.56,11.336c7.231,9.733,14.623,9.865,23.744,0.505c-0.672-8.321-1.961-16.591-3.824-24.729
				c2.443,0.109,4.898-0.576,6.774-2.143C648.347,270.079,649.113,264.774,648.929,260.012z"/>
		</g>
		<path style="fill:none;stroke:#BA785B;stroke-linecap:round;stroke-linejoin:round;stroke-miterlimit:10;" d="M611.91,258.315
			c0.446,1.265,0.331,2.681-0.12,3.945c-0.451,1.263-1.217,2.391-2.063,3.432c-0.371,0.456-0.764,0.908-0.993,1.449
			c-0.228,0.542-0.265,1.204,0.066,1.689c0.494,0.724,1.527,0.766,2.402,0.733"/>
		<path style="fill:#4D6627;" d="M602.631,258.061c0.152-1.014,0.877-1.746,1.621-1.635c0.744,0.111,1.224,1.023,1.072,2.037
			c-0.151,1.014-0.877,1.746-1.621,1.635C602.96,259.987,602.48,259.075,602.631,258.061z"/>
		<path style="fill:#4D6627;" d="M617.289,260.78c0.151-1.014,0.877-1.746,1.621-1.635c0.744,0.111,1.224,1.023,1.072,2.037
			c-0.151,1.014-0.877,1.746-1.621,1.635C617.618,262.706,617.138,261.794,617.289,260.78z"/>
		<path style="fill:none;stroke:#916C20;stroke-linecap:round;stroke-linejoin:round;stroke-miterlimit:10;" d="M618.192,250.749
			c2.822,0.322,5.459,1.999,6.946,4.419"/>
		<path style="fill:none;stroke:#916C20;stroke-linecap:round;stroke-linejoin:round;stroke-miterlimit:10;" d="M608.309,249.284
			c-2.84-0.043-5.67,1.282-7.456,3.491"/>
		<g>
			<g>
				<path style="fill:#E09A7B;" d="M558.173,296.805c-0.893-2.458-2.284-5.217-4.857-5.681c-1.615-0.291-4.033,1.602-5.163,2.832
					c-6.886-10.632-13.259-23.099-16.47-21.548c-3.211,1.551,0.334,12.438,4.024,20.386c-3.056,0.019-5.226,4.242-3.59,7.108
					c-3.099,1.657-3.853,6.467-1.411,8.993c-1.472,0.12-2.426,1.772-2.33,3.247c0.095,1.474,0.933,2.782,1.746,4.016
					c3.029,4.6,7.712,11.955,10.742,16.555c4.151,1.098,23.934-16.162,24.111-16.608
					C565.15,316.204,560.908,304.331,558.173,296.805z"/>
			</g>
			<path style="fill:none;stroke:#BA785B;stroke-linecap:round;stroke-linejoin:round;stroke-miterlimit:10;" d="M549.75,292.789
				c-3.524,2.829-6.772,12.888-3.026,14.636c3.29,1.535,6.613-2.581,8.123-7.283"/>
			<path style="fill:none;stroke:#BA785B;stroke-linecap:round;stroke-linejoin:round;stroke-miterlimit:10;" d="M532.774,315.413
				c3.714,0.687,6.116,3.22,8.341,3.741c2.679,0.626,4.257-2.519,2.238-4.338c-2.716-2.446-7.523-5.252-11.863-5.818"/>
			<path style="fill:none;stroke:#BA785B;stroke-linecap:round;stroke-linejoin:round;stroke-miterlimit:10;" d="M535.773,293.167
				c4.556,1.508,8.646,4.349,10.036,6.408"/>
			<path style="fill:none;stroke:#BA785B;stroke-linecap:round;stroke-linejoin:round;stroke-miterlimit:10;" d="M542.291,313.935
				c3.225,1.036,6.221-0.096,5.742-3.401c-0.582-4.017-6.844-8.522-15.193-10.413"/>
		</g>
		<g>
			
				<line style="fill:none;stroke:#403531;stroke-linecap:round;stroke-linejoin:round;stroke-miterlimit:10;" x1="627.15" y1="259.178" x2="634.935" y2="252.614"/>
			<g>
				<path style="fill:none;stroke:#403531;stroke-linecap:round;stroke-linejoin:round;stroke-miterlimit:10;" d="M596.583,256.819
					c0.724-4.43,3.95-5.637,7.254-5.097c3.304,0.54,5.435,2.621,4.711,7.052c-0.724,4.431-3.989,7.585-7.293,7.045
					C597.951,265.279,595.859,261.249,596.583,256.819z"/>
				<path style="fill:none;stroke:#403531;stroke-linecap:round;stroke-linejoin:round;stroke-miterlimit:10;" d="M615.468,260.013
					c0.392-4.472,3.52-5.915,6.855-5.623c3.335,0.292,5.615,2.209,5.223,6.681c-0.392,4.472-3.414,7.86-6.749,7.568
					C617.462,268.348,615.076,264.485,615.468,260.013z"/>
				
					<line style="fill:none;stroke:#403531;stroke-linecap:round;stroke-linejoin:round;stroke-miterlimit:10;" x1="608.425" y1="260.014" x2="615.232" y2="261.525"/>
			</g>
		</g>
		<path style="fill:#91C248;" d="M616.399,292.694c3.558,2.174,6.932,4.65,9.777,7.795c4.717-3.618,9.888-6.645,15.353-8.985
			c0,0,27.031,4.597,26.536,4.051c18.226,22.158,32.677,49.283,38.587,77.54c1.04,27.757-41.031,21.814-59.459,19.436
			c-2.112-2.883-3.229-1.849-3.229-1.849s-30.052-0.12-30.057-0.112c0,0-10.867-31.824-11.01-30.697
			c-26.053,52.502-47.973,2.139-66.198-24.271l28.661-22.485c0,0,14.555,24.659,14.308,24.996
			c6.123-16.016,7.534-37.564,37.35-38.194C616.695,297.579,616.574,295.212,616.399,292.694z"/>
		<g>
			<path style="fill:#EBD7CE;" d="M631.139,396.705c-14.891-7.995-33.352-13.174-48.348-1.775
				c-13.783-8.016-32.03-7.637-45.467,0.945L631.139,396.705z"/>
			<path style="fill:none;stroke:#B3A49D;stroke-linecap:round;stroke-linejoin:round;stroke-miterlimit:10;" d="M625.146,395.46
				c-10.59-5.117-30.482-12.486-42.805,0.699"/>
			<path style="fill:none;stroke:#B3A49D;stroke-linecap:round;stroke-linejoin:round;stroke-miterlimit:10;" d="M621.479,395.681
				c-15.759-5.421-27.223-4.348-35.901,0.634"/>
			<path style="fill:none;stroke:#B3A49D;stroke-linecap:round;stroke-linejoin:round;stroke-miterlimit:10;" d="M582.796,395.952
				c-14.458-5.745-31.004-5.438-39.052-0.031"/>
			
				<line style="fill:none;stroke:#2C414D;stroke-width:1.5;stroke-linecap:round;stroke-linejoin:round;stroke-miterlimit:10;" x1="535.98" y1="396.242" x2="631.318" y2="396.242"/>
		</g>
		<path style="fill:#B08227;" d="M634.582,226.243c-11.27-2.91-24.335-0.931-30.569,13.58c-1.195,1.389,16.161,7.584,25.437,1.79
			c-1.804,4.589-2.759,12.363,1.151,17.931c12.429-18.633,21.994,8.13,4.138,11.487c-9.789,16.426,0.07,23.979,6.894,37.283
			c-8.474,32.796,33.657,45.361,46.719,16.233c12.16-1.219,17.984-16.348,11.491-26.205c-5.543-11.123-19.202-4.365-23.819-18.553
			c-3.76-10.796-14.749-11.421-15.714-18.205C658.496,248.82,656.156,231.813,634.582,226.243z"/>
		<path style="fill:none;stroke:#BA785B;stroke-linecap:round;stroke-linejoin:round;stroke-miterlimit:10;" d="M607.221,274.46
			c0.252,1.397,1.76,2.331,3.177,2.251c1.417-0.08,2.684-0.977,3.558-2.094"/>
		<path style="fill:none;stroke:#BA785B;stroke-linecap:round;stroke-linejoin:round;stroke-miterlimit:10;" d="M639.306,256.755
			c-3.437,0.951-6.272,3.823-7.18,7.271c1.306-1.662,3.38-2.694,5.494-2.733c0.773-0.014,1.705,0.221,1.932,0.961
			c0.205,0.668-0.299,1.341-0.837,1.787c-1.229,1.016-2.834,1.567-4.428,1.52"/>
		<path style="fill:none;stroke:#6E8F3C;stroke-linecap:round;stroke-linejoin:round;stroke-miterlimit:10;" d="M626.12,300.095
			c0.758,16.13,11.423,67.87,11.423,67.87"/>
		<path style="fill:none;stroke:#6E8F3C;stroke-linecap:round;stroke-linejoin:round;stroke-miterlimit:10;" d="M600.182,348.96
			c1.426,4.888,2.853,9.775,4.279,14.663"/>
		<path style="fill:none;stroke:#6E8F3C;stroke-linecap:round;stroke-linejoin:round;stroke-miterlimit:10;" d="M577.164,334.478
			c2.524,3.38,3.858,6.337,3.858,6.337"/>
		<path style="fill:none;stroke:#6E8F3C;stroke-linecap:round;stroke-linejoin:round;stroke-miterlimit:10;" d="M646.494,365.916
			c9.37-0.905,18.805-1.141,28.209-0.704"/>
		<path style="fill:none;stroke:#6E8F3C;stroke-linecap:round;stroke-linejoin:round;stroke-miterlimit:10;" d="M660.933,351.334
			c1.559,4.903,3.922,9.549,6.966,13.697"/>
		<g>
			<path style="fill:#E09A7B;" d="M647.479,392.603c0,0-11.885-2.855-11.876-2.93c-4.945,1.828-13.38-0.085-18.137-2.359
				c0,0-23.542,7.608-30.12,2.89c-1.192-6.27,7.564-14.622,18.776-19.763c9.069-4.158,40.508-5.203,40.508-5.203L647.479,392.603z"
				/>
			<path style="fill:none;stroke:#BA785B;stroke-linecap:round;stroke-linejoin:round;stroke-miterlimit:10;" d="M612.667,378.26
				c-13.229,2.706-20.722,8.376-22.506,12.18"/>
			<path style="fill:none;stroke:#BA785B;stroke-linecap:round;stroke-linejoin:round;stroke-miterlimit:10;" d="M607.253,373.898
				c-11.86,4.662-16.675,9.133-19.553,14.175"/>
		</g>
		<path style="fill:#6E8F3C;" d="M623.412,323.944c-0.062-0.682,0.256-1.268,0.711-1.31c0.455-0.041,0.873,0.478,0.935,1.16
			s-0.256,1.268-0.711,1.31C623.893,325.145,623.474,324.625,623.412,323.944z"/>
		<path style="fill:#6E8F3C;" d="M624.514,332.21c-0.062-0.682,0.256-1.268,0.711-1.31c0.455-0.041,0.873,0.478,0.935,1.16
			c0.062,0.682-0.257,1.268-0.711,1.31C624.995,333.411,624.576,332.892,624.514,332.21z"/>
		<path style="fill:#6E8F3C;" d="M626.167,341.027c-0.062-0.682,0.257-1.268,0.711-1.31c0.455-0.041,0.873,0.478,0.935,1.16
			s-0.257,1.268-0.711,1.31C626.648,342.229,626.229,341.709,626.167,341.027z"/>
		<path style="fill:#6E8F3C;" d="M627.545,349.845c-0.062-0.682,0.256-1.268,0.711-1.31c0.455-0.041,0.873,0.478,0.935,1.16
			c0.062,0.682-0.257,1.268-0.711,1.31C628.026,351.046,627.607,350.527,627.545,349.845z"/>
		<path style="fill:#6E8F3C;" d="M629.198,359.764c-0.062-0.682,0.257-1.268,0.711-1.31c0.455-0.041,0.873,0.478,0.935,1.16
			s-0.257,1.268-0.711,1.31C629.679,360.966,629.26,360.446,629.198,359.764z"/>
		<path style="fill:#6E8F3C;" d="M622.585,315.402c-0.062-0.682,0.257-1.268,0.711-1.31c0.455-0.041,0.873,0.478,0.935,1.16
			c0.062,0.682-0.256,1.268-0.711,1.31S622.647,316.084,622.585,315.402z"/>
		<path style="fill:#6E8F3C;" d="M621.483,306.309c-0.062-0.682,0.257-1.268,0.711-1.31c0.455-0.041,0.874,0.478,0.935,1.16
			c0.062,0.682-0.257,1.268-0.711,1.31C621.964,307.51,621.545,306.991,621.483,306.309z"/>
		<path style="fill:#6E8F3C;" d="M564.305,319.828c-0.307-0.753-0.148-1.529,0.353-1.733c0.502-0.204,1.157,0.24,1.464,0.993
			c0.307,0.753,0.148,1.529-0.353,1.733C565.267,321.025,564.611,320.58,564.305,319.828z"/>
		<g>
			<path style="fill:none;stroke:#916C20;stroke-linecap:round;stroke-linejoin:round;stroke-miterlimit:10;" d="M640.202,280.612
				c-0.382,8.913,3.635,17.91,10.673,23.292c-1.842,5.591-2.275,11.901,0.2,17.243c2.475,5.341,8.348,9.32,14.155,8.353"/>
			<path style="fill:none;stroke:#916C20;stroke-linecap:round;stroke-linejoin:round;stroke-miterlimit:10;" d="M657.986,311.392
				c0.078,5.012,4.17,9.658,9.131,10.37"/>
			<path style="fill:none;stroke:#916C20;stroke-linecap:round;stroke-linejoin:round;stroke-miterlimit:10;" d="M664.5,309.984
				c1.048,3.005,3.939,5.279,7.106,5.59"/>
			<path style="fill:none;stroke:#916C20;stroke-linecap:round;stroke-linejoin:round;stroke-miterlimit:10;" d="M655.473,255.361
				c-1.177,6.568,1.984,13.703,7.639,17.244"/>
			<path style="fill:none;stroke:#916C20;stroke-linecap:round;stroke-linejoin:round;stroke-miterlimit:10;" d="M653.251,269.053
				c1.005,3.278,3.08,6.218,5.831,8.264"/>
			<path style="fill:none;stroke:#B08227;stroke-linecap:round;stroke-linejoin:round;stroke-miterlimit:10;" d="M675.088,279.201
				c0.6,2.872,2.882,5.159,5.483,6.518s5.525,1.938,8.394,2.554c2.869,0.617,5.785,1.31,8.278,2.858
				c3.524,2.188,5.937,6.077,6.331,10.207"/>
			<path style="fill:none;stroke:#B08227;stroke-linecap:round;stroke-linejoin:round;stroke-miterlimit:10;" d="M641.88,306.373
				c-2.848,5.652-3.513,12.371-1.829,18.472c1.684,6.101,5.702,11.527,11.047,14.918"/>
		</g>
	</g>
</g>
</svg>
