<?xml version="1.0" encoding="utf-8"?>
<!-- Generator: Adobe Illustrator 27.5.0, SVG Export Plug-In . SVG Version: 6.00 Build 0)  -->
<svg version="1.1" id="Capa_1" xmlns="http://www.w3.org/2000/svg" xmlns:xlink="http://www.w3.org/1999/xlink" x="0px" y="0px"
	 viewBox="0 0 425.2 425.2" style="enable-background:new 0 0 425.2 425.2;" xml:space="preserve">
<rect x="0.002" y="0.002" style="fill:#FFFFFF;" width="425.197" height="425.196"/>
<path style="fill:#BCBEC0;" d="M391.764,364.466c0,7.718-42.097,13.974-94.026,13.974c-51.93,0-94.026-6.256-94.026-13.974
	c0-7.717,42.097-13.974,94.026-13.974C349.667,350.492,391.764,356.749,391.764,364.466z"/>
<path style="fill:#BCBEC0;" d="M259.265,316.384c0,7.718-42.097,13.974-94.026,13.974s-94.026-6.256-94.026-13.974
	c0-7.717,42.097-13.974,94.026-13.974S259.265,308.667,259.265,316.384z"/>
<g>
	<g>
		<g>
			<path style="fill:#00B9C5;" d="M289.183,188.438c0,69.695-56.496,126.195-126.193,126.195s-126.191-56.5-126.191-126.195
				c0-69.693,56.494-126.193,126.191-126.193S289.183,118.745,289.183,188.438z"/>
			<path style="fill:#E6E7E8;" d="M252.077,99.065c1.076,2.879,2.023,5.809,2.818,8.793c6.199,23.27,3.361,48.328-8.451,69.438
				c-11.344,20.268-26.291,40.891-47.65,51.447c-19.959,9.863-44.078,9.793-64.744,1.846c-18.506-7.117-34.574-20.357-43.863-38.043
				c-10.125-19.279-12.248-41.777-7.15-62.885c5.535-22.922,19.076-42.457,36.127-58.432c0.678-0.635,1.359-1.266,2.043-1.895
				C72.048,86.581,36.798,133.39,36.798,188.438c0,69.695,56.494,126.195,126.191,126.195s126.193-56.5,126.193-126.195
				C289.183,153.518,274.997,121.913,252.077,99.065z"/>
			<g>
				<defs>
					<path id="SVGID_1_" d="M289.183,188.438c0,69.695-56.496,126.195-126.193,126.195s-126.191-56.5-126.191-126.195
						c0-69.693,56.494-126.193,126.191-126.193S289.183,118.745,289.183,188.438z"/>
				</defs>
				<clipPath id="SVGID_00000014610094689404179720000014918372529930437558_">
					<use xlink:href="#SVGID_1_"  style="overflow:visible;"/>
				</clipPath>
				
					<ellipse style="opacity:0.5;clip-path:url(#SVGID_00000014610094689404179720000014918372529930437558_);fill:#FFFFFF;" cx="173.507" cy="116.677" rx="56.975" ry="43.729"/>
				<g style="opacity:0.5;clip-path:url(#SVGID_00000014610094689404179720000014918372529930437558_);">
					<path style="fill:#7E8083;" d="M-70.075,91.624c-0.318,1.072-0.082,0.648,0.551,1.279c0.453,0.443,1.422,0.316,0.932,1.482
						c-0.279,0.662-1.031,0.623-1.719,0.662c-2.514,0.15-6.004-1.834-7.666,1.178c1.463,1.666,3.852-0.58,5.275,0.436
						c0.869,0.611,0.174,1.58-0.516,2.109c-0.926,0.723-1.881,0.484-2.945,0.652c-1.477,0.24-4.498,0.486-5.414,1.668
						c-0.666,0.891-0.074,1.682-0.51,2.545c-0.473,0.941-1.879,0.707-1.52,2.211c1.008,0.35,2.176,0.193,3.121,0.539
						c-0.791,3.252-7.209,2.547-8.709,5.422c1.141,1.135,5.115-1.877,6.477-2.238c1.934-0.518,3.754-1.938,5.668-2.668
						c1.227-0.473,2.352-1.223,3.574-1.42c0.75-0.133,1.307-0.035,2.059-0.309c0.508-0.188,0.906-0.686,1.498-0.762
						c1.578-0.229,1.938,1.07,3.674,0.166c2.09-1.086,3.969-2.529,6.359-0.979c1.404,0.912,1.818,1.229,3.691,1.217
						c1.764-0.02,1.98,0.932,3.299,1.748c1.051,0.645,1.799,1.02,2.371,2.211c0.967,1.939,0.02,4.861-0.555,6.721
						c-0.947,3.027,1.779,3.602,2.549,6.08c0.357,1.203,0.223,4.455-1.619,4.59c-1.064,0.088-1.223-2.27-2.113,0
						c-0.412,1.047-0.295,2.006-1.025,3.064c-0.832,1.203-2.072,1.953-2.924,3.162c-0.947,1.289-2.529,2.65-3.16,4.088
						c-0.297,0.668-0.08,0.947-0.514,1.59c-0.434,0.631-0.928,0.67-0.83,1.607c0.08,0.682,0.553,0.832,0.574,1.559
						c0.021,0.516-0.574,1.156-0.558,1.848c0.045,0.822,0.361,0.928,0.537,1.48c0.277,0.791,0.182,1.047,0.043,1.924
						c-0.141,0.813-0.199,1.645-0.141,2.51c1.301,0.393,2.725,0.732,3.436,1.998c0.713,1.225,0.258,2.895,0.828,4.213
						c0.557,1.305,1.129,2.389,1.387,3.834c0.117,0.666-0.176,1.443,0,2.086c0.273,1.004,0.727,0.73,1.301,1.352
						c1.578,1.738,0.078,6.025,3.555,6.588c0.141-0.771-0.219-1.063-0.371-1.699c-0.178-0.699-0.143-1.43-0.277-2.154
						c-0.219-1.074-0.4-2.705-0.869-3.656c-0.535-1.092-3.908-6.465-1.227-6.465c2.23-0.01,2.764,4.947,3.555,6.465
						c0.295,0.555,0.771,1.09,0.908,1.707c0.121,0.561-0.137,1.207,0.021,1.752c0.336,1.145,1.582,1.49,2.41,2.322
						c2.016,1.992,0.767,4.533,1.973,6.727c1.207,2.178,3.006,3.871,5.121,5.199c1.795,1.158,4.461,3.17,6.596,3.281
						c2.465,0.109,4.19-1.492,6.359,0.254c0.688,0.555,1.004,1.152,1.596,1.691c0.832,0.762,2.943,2.373,4.053,2.539
						c0.943,0.15,2.133-0.285,3.039-0.008c1.402,0.416,1.225,1.496,1.604,2.605c0.416,1.104,1.283,1.736,1.699,2.674
						c0.451,1.027,0.408,1.721,1.436,2.479c0.871,0.643,2.019,1.059,2.904,1.74c0.811,0.611,2.176,2.309,3.436,1.727
						c1.053-0.484,0.77-2.051,0.813-3.02c1.166-0.063,2.311-0.209,3.26,0.475c0.986,0.732,0.869,1.916,1.459,2.971
						c1.328,2.4,0.518,4.869-1.066,6.965c-1.457,1.924-2.881,3.504-3.969,5.654c-0.357,0.732-0.594,0.998-0.652,1.869
						c-0.08,1.133,0.416,0.768,0.732,1.568c0.397,1.031-0.394,2.094-0.813,3.045c-0.512,1.115-1.301,3.467,0.609,3.711
						c0,0,1.408,1.818,1.486,1.953c0.574,0.914,0.611,1.988,0.811,3.006c0.295,1.695,0.947,2.807,1.82,4.266
						c0.75,1.258,0.943,2.615,1.617,3.818c0.592,1.068,1.537,2.061,2.189,3.141c0.889,1.518,0.908,1.791,2.652,1.883
						c1.951,0.084,2.447,0.758,3.924,1.947c3.041,2.428,5.357,4.033,4.367,7.943c-0.908,3.566-0.65,7.557,0.453,10.955
						c0.537,1.678,0.496,3.426,0.674,5.246c0.082,0.803,0,1.629,0.1,2.441c0.074,0.853,0.572,1.594,0.688,2.373
						c0.197,1.404-0.115,3.121-0.037,4.582c0.037,0.643,0.1,1.246,0.273,1.861c0.141,0.57,0.736,1.359,0.791,1.82
						c0.201,1.414-0.83,1.93-0.137,3.418c0.254,0.555,0.631,1.059,0.93,1.647c0.316,0.66,0.279,1.191,0.549,1.813
						c0.498,1.193,1.58,1.344,1.822,2.645c0.117,0.67,0.41,2.807,0.256,3.303c-0.197,0.646-1.951,1.471-1.461,2.506
						c0.234,0.473,1.242,0.309,1.695,0.73c0.381,0.314,0.615,1.137,0.731,1.639c0.717,2.775,0.596,6.578,3.654,7.92
						c2.274,1.01,5.633,2.66,6.617-0.662c0.377-1.369-0.354-2.635-0.158-3.959c0.236-1.432,2.057-2.396,2.135-3.85
						c0.035-1.455-1.816-2.342-1.996-3.805c-0.156-1.396,1.229-2.396,1.07-3.822c-0.201-1.746-1.959-2.793-1.959-4.736
						c1.088,0.096,1.521,1.703,2.748,0.381c0.531-0.564,0.172-1.559,0.531-2.053c0.535-0.711,1.205-0.363,1.994-0.465
						c2.293-0.246,6.164-2.813,4.842-5.668c-0.299-0.623-2.607-2.459-1.027-2.748c0.234-0.045,1.461,0.705,1.857,0.773
						c0.828,0.17,1.521,0.17,2.287-0.107c1.563-0.566,2.744-2.256,3.342-3.764c0.508-1.313,0.594-1.559,1.697-2.488
						c2.352-1.945,2.785-4.73,2.606-7.602c-0.18-2.668-0.592-5.213,2.963-5.568c0.75-0.084,1.223,0,1.859-0.273
						c0.789-0.322,1.004-0.631,1.857-0.785c1.816-0.346,2.012-0.754,2.861-2.385c0.631-1.213,1.363-2.418,1.897-3.721
						c0.73-1.76,0.57-3.188,0.81-5.055c0.178-1.443,0.611-2.793,0.73-4.248c0.117-1.443-0.236-2.836,0.711-3.99
						c0.947-1.166,2.016-1.508,2.703-2.91c1.127-2.242,2.154-3.762,2.154-6.334c0-1.016,0.355-2.732,0-3.672
						c-0.512-1.443-1.465-0.74-2.645-1.068c-2.451-0.713-2.295-4.227-4.975-4.592c-1.113-0.158-2.256,0.131-3.363-0.029
						c-1.619-0.234-2.625-0.057-4.164-0.018c0.236-1.65-1.857-2.559-3.025-3.139c-0.69-0.352-0.354-0.445-1.266-0.32
						c-0.314,0.045-0.846,0.334-1.16,0.465c-0.873,0.385-1.443,0.732-2.215,1.283c-0.197-1.006,0.73-1.629,0.49-2.609
						c-3.133-1.326-4.42,1.049-6.553,2.74c-0.596-1.445,0.215-1.975,1.201-2.863c0.815-0.744,1.127-1.141,1.33-2.295
						c0.314-2.006-0.793-4.229-1.33-6.145c-0.494-1.744-1.182-1.617-2.803-1.617c-1.145,0-2.289,0.063-3.416-0.229
						c-4.17-1.045-5.648-5.566-9.5-6.93c-1.857-0.666-3.713-0.85-5.67-1.158c-0.869-0.139-1.814-0.412-2.664-0.68
						c-1.264-0.412-1.623-1.203-2.51-1.963c-0.906-0.775-1.699-0.555-2.805-0.201c-0.734,0.25-3.057,1.344-1.559,2.076
						c0.115,0.563,0.293,1.5-0.022,2.064c-0.473,0.859-1.541,0.641-1.959,1.359c-1.064-0.877-1.24-2.031-0.805-3.318
						c0.375-1.104,1.795-1.904,1.697-3.139c-1.223-0.236-2.053,1.088-3.023,1.531c-0.969,0.455-1.871,0.654-2.846,1.381
						c-0.393,0.32-0.766,0.566-1.086,1.002c-0.31,0.441-0.35,1.104-0.767,1.508c-0.299,0.307-0.91,0.428-1.346,0.516
						c-1.004,0.207-0.473,0.314-1.342-0.285c-1.283-0.869-1.42-0.754-2.865-0.396c-1.121,0.285-2.168,0.543-3.273,0.947
						c-0.771,0.277-0.084,0.838-1.189,0.238c-0.434-0.215-0.906-0.992-1.182-1.354c-0.813-1.049-1.229-1.982-1.084-3.369
						c0.113-1.227,0.473-2.369,0.649-3.594c0.154-0.947,0.75-2.705,0.295-3.586c-1.262-2.537-4.938,0.061-6.775-0.674
						c-1.557-0.627-0.453-1.439,0.414-2.436c1.088-1.256,0.99-1.689,1.326-3.203c0.217-1.023,1.738-2.063,1.816-3.059
						c0.098-1.334-2.369-2.383-3.379-2.686c-1.342-0.404-3.063-0.119-3.693,1.262c-0.691,1.506,0.336,2.201-1.359,3.34
						c-0.891,0.605-2.096,1.244-3.125,1.521c-1.815,0.465-3.061,0.66-3.967-0.998c-1.084-2.004-1.584-3.875-1.342-6.27
						c0.17-1.881,0.807-3.75,1.363-5.582c0.191-0.709,0.191-1.34,0.357-2.045c0.25-1.154-0.201-0.811,1.002-1.213
						c1.637-0.566,1.818-0.633,3.059-1.818c1.113-1.059,2.371-1.111,3.836-1.182c1.283-0.061,2.269,0.563,3.418,0.52
						c1.539-0.051,1.916-1.4,3.059-1.844c1.303-0.508,2.729,0.254,3.832,0.66c1.148,0.422,2.805-0.471,3.691,0.117
						c1.027,0.693,0.557,2.32,0.811,3.34c0.178,0.619,0.516,1.047,0.635,1.688c0.119,0.621-0.197,1.283-0.139,1.857
						c0.156,1.469,1.404,1.752,2.547,1.047c1.185-0.721,1.619-2.283,1.678-3.564c0.123-1.85-0.943-3.174-1.18-4.752
						c-0.361-2.617,2.859-2.396,4.221-3.387c1.484-1.059,1.822-3.178,3.436-4.098c1.346-0.77,3.023-0.941,3.836-2.506
						c0.731-1.441-1.226-5.791,1.205-6.373c0.785-0.195,1.086,0.643,1.816,0.547c0.709-0.088,1.658-1.465,2.113-2
						c1.144-1.303,1.836-1.537,3.514-1.705c1.604-0.158,3.084-0.574,3.854-2.115c0.275-0.572,0.119-1.311,0.453-1.857
						c0.65-1.078,0.809-0.48,1.82-0.781c1.656-0.477,3-1.854,4.758-2.42c0.791-0.258,3.242-1.182,3.693-0.416
						c0.771,1.297-2.309,0.869-2.748,1.939c-1.082,2.625,3.617-0.484,4.055-0.662c1.34-0.535,4.641-0.184,4.084-2.648
						c-0.828-0.049-1.498,0.051-2.268,0.209c-1.225,0.258-0.914,0.445-1.637-0.357c-0.951-1.055-1.033-2.041-0.18-3.01
						c1.121-1.287,1.77-1.76-0.654-1.975c-0.73-0.07-1.521-0.107-2.209,0.139c-0.336,0.107-1.445,1.104-1.74,1.023
						c-1.697-0.412,0.926-2.15,1.461-2.428c1.182-0.602,2.805-0.77,4.146-1.006c2.568-0.457,5.924,1.529,8.314,0.156
						c0.631-0.344,0.912-0.936,1.543-1.303c0.592-0.377,1.42-0.482,2.07-0.73c1.229-0.457,2.785-1.02,3.023-2.479
						c0.473-2.686-3.199-1.67-4.723-1.873c0.141-0.439,0.951-0.906,1.025-1.316c0.16-0.916-0.469-0.914-0.867-1.594
						c-0.828-1.34-0.234-2.598,0.123-3.887c0.334-1.266,0.041-3.014-1.205-3.475c-1.779-0.643-2.275,1.211-3.336,1.959
						c-0.676,0.479-2.314,0.9-2.906,0.023c-0.494-0.721-0.277-2.648-0.633-3.525c-0.773-1.848-1.461-1.955-3.4-2.15
						c-1.201-0.121-2.523-0.26-3.711-0.133c-1.322,0.141-2.369,0.709-2.623,2.113c-0.102,0.586,0.295,1.139-0.022,1.69
						c-0.377,0.631-1.387,0.611-1.975,0.908c-1.742,0.902-0.496,1.451-0.277,2.934c0.236,1.572-0.832,2.598-2.115,3.277
						c-1.127,0.592-1.896,1.047-2.764,1.865c-0.535,0.506-1.008,0.598-1.326,1.326c-0.295,0.641-0.174,1.315-0.65,1.98
						c-0.711,1.022-1.74,2.604-3.18,2.248c-1.186-0.281-1.695-1.494-1.58-2.641c0.141-1.186,1.226-2.232,0.934-3.555
						c-0.359-1.59-1.982-1.213-3.287-1.59c-1.596-0.461-2.863-1.262-4.203-2.113c-1.242-0.775-2.783-0.504-3.201-2.113
						c-0.826-3.113,2.553-3.891,4.623-4.848c1.363-0.619,3.197-0.996,4.246-2.113c1.068-1.115,0.473-1.666,2.076-1.746
						c2.053-0.09,5.25-0.416,6.756-1.979c-0.637-0.525-2.053-0.504-1.723-1.697c1.01-0.045,2.035,0.033,3.023-0.119
						c1.205-0.188,2.272-0.611,3.537-0.563c1.285,0.039,3.59,0.404,4.504-0.781c0.492-0.643,0.57-2.336,0.514-3.158
						c-0.973-0.09-1.918-0.742-2.883-0.248c-0.85,0.424-1.027,1.629-1.803,2.102c-1.555,0.971-2.682-0.064-2.445-1.588
						c-1.168-0.045-2.531,0.219-3.021-1.078c-0.416-1.154,0.787-2.555-0.811-2.771c-1.283-0.172-3.082,0.986-3.242,2.252
						c-0.174,1.527,0.496,2.467-1.738,3.029c-1.498,0.365-2.365,0.791-3.77,1.461c-1.58,0.75-1.738-0.352-3.123-0.67
						c-0.828-0.188-1.914,0.02-2.746,0.096c-0.488,0.053-1.717,0.557-2.111,0.416c-0.613-0.193-0.414-0.916-1.326-0.908
						c-0.336,0-1.5,0.625-1.857,0.832c-0.848,0.475-2.346,2.174-3.371,1.59c-0.934-0.535-0.576-2.047-1.916-2.482
						c-1.191-0.369-2.592,0.547-3.738,0.08c-0.869-0.354-0.451-0.799-0.965-1.262c-0.756-0.703-1.936-0.424-2.943-0.719
						c-1.127-0.35-2.234-0.736-3.398-0.943c-2.508-0.424-5.65-0.551-8.152-0.52c-1.385,0.008-1.861,0.748-3.047,1.223
						c-1.143,0.463-2.625,0.494-3.854,0.621c-2.463,0.25-5.371-0.426-7.697-1.182c-1.365-0.457-2.906-0.17-4.309-0.435
						c-1.125-0.207-2.094-0.764-3.178-1.031c-2.152-0.531-5.137-0.381-7.389-0.381c-2.904,0-5.412,0.57-8.176,1.074
						c-2.471,0.461-3.914,2.424-6.738,1.955C-68.556,90.507-69.644,90.085-70.075,91.624z"/>
					<path style="fill:#7E8083;" d="M-8.296,169.608c-0.295,0.158-1.775,1.039-1.402,1.531c0.496,0.654,1.857-0.234,2.309-0.543
						c1.623-1.039,3.004-0.219,4.588,0.348c0.709,0.258,1.457,0.354,2.07,0.84c0.356,0.277,1.244,0.918,1.342,1.322
						c0.217,0.752-0.986,0.682-0.652,1.51c0.316,0.818,2.037,0.631,2.689,0.592c0.533-0.02,1.027-0.096,1.559,0
						c0.67,0.131,1.125,0.434,1.801,0.27c0.156-0.426,0.627-0.926,0.553-1.385c-0.102-0.5-0.971-0.781-1.4-0.975
						c-1.012-0.438-2.098-0.799-3.049-1.357c-1.004-0.582-1.76-1.32-2.881-1.697c-1.463-0.475-2.902-0.463-4.383-0.859
						c-0.85-0.227-0.949,0.031-1.762,0.209c-0.475,0.1-1.043,0.039-1.438,0.195"/>
					<path style="fill:#7E8083;" d="M9.261,174.747c-0.75-0.143-0.295,0.889-0.195,1.18c0.182,0.498,0.418,0.836-0.395,0.998
						c-0.557,0.119-1.34-0.207-1.857,0.061c-0.613,0.334-0.475,0.941,0.1,1.135c0.93,0.311,2.193-0.434,3.119-0.326
						c0.32,0.043,0.377,0.27,0.57,0.309c0.32,0.08,0.695,0,1.014,0.008c0.566,0.035,1.439,0.25,1.996,0.063
						c0.354-0.121,1.082-1.029,0.414-1.119c1.004,0.232,0.551-0.607,0.135-1.014c-0.674-0.648-1.223-0.563-2.154-0.563
						c-0.871,0-2.092,0.047-2.746-0.521"/>
					<path style="fill:#7E8083;" d="M1.423,177.319c-0.791-0.164-1.504-0.033-2.135,0.459c0.238,0.078,0.516,0.047,0.734,0.148
						c0.328,0.137,0.328,0.332,0.531,0.504c0.373,0.352,0.828,0.422,1.521,0.346c0.592-0.063,0.828-0.309,0.215-0.789
						c-0.494-0.377-1.047,0.025-1.027-0.863"/>
					<path style="fill:#7E8083;" d="M18.823,177.395c-0.85-0.342-1.268-0.025-1.758,0.656c0.219,0.504,0.535,0.207,0.908,0.328
						c0.451,0.137,0.629,0.383,1.125,0.383c0.83,0,1.563-0.215,1.422-1.234c-0.906-0.068-1.105,0.555-1.951-0.006"/>
					<path style="fill:#7E8083;" d="M47.896,120.45c-1.736,0.058-2.135,2.598-3.08,3.576c-0.414,0.404-1.934,0.906-0.791,1.305
						c0.932,0.314,2.057-0.623,3.105-0.439c0.844,0.16,1.301,0.738,2.248,0.604c0.691-0.096,1.998-0.83,1.875-1.678
						c-0.137-1.195-1.463-0.561-2.17-1.006c-0.355-0.217-0.535-0.715-0.59-1.08c-0.119-0.691,0.174-0.535,0.291-1.084
						c0.102-0.404,0.555-0.701-0.373-0.77c-0.611-0.043-0.732,0.277-1.01,0.77"/>
					<path style="fill:#7E8083;" d="M37.214,96.694c-0.973,0.232-2.709-0.611-3.578-0.104c-0.453,0.264-0.531,0.828-0.096,1.104
						c0.435,0.268,1.479-0.248,1.895-0.305c0.869-0.117,2.23-0.09,2.92,0.395c0.791,0.523,0.99,1.748,1.701,2.455
						c0.93,0.92,2.051,1.324,3.357,1.309c0.477-0.012,1.42,0.1,1.227-0.693c-0.135-0.484-1.207-0.334-1.465-0.707
						c-0.135-0.209-0.115-1.236,0.045-1.393c0.588-0.547,1.301,0.361,1.693,0.537c0.695,0.32,2.309,0.41,2.568-0.623
						c0.139-0.58-0.26-0.738-0.475-1.182c-0.316-0.611-0.397-0.818-0.397-1.578c-0.019-2.857,2.826-0.652,4.25-0.279
						c1.104,0.309,2.625-0.789,1.699-1.912c-0.574-0.666-2.016-0.625-2.688-1.426c-0.395-0.445-0.826-1.131-0.789-1.736
						c0.02-0.494,0.592-0.76,0.592-1.08c0.041-0.738-1.442-1.357-2.094-1.486c-1.008-0.199-1.6,0.109-2.231-0.893
						c-0.676-1.045-0.594-1.508-2.074-1.289c-1.047,0.16-1.938,0.385-2.928-0.1c-0.965-0.469-1.342-1.297-2.547-1.482
						c-1.184-0.191-1.617,0.098-2.586,0.771c-0.49,0.342-2.033,1.262-2.666,0.82c-0.99-0.689,1.183-1.482,1.205-1.791
						c0.039-0.947-2.072,0.025-2.471,0.199c-1.045,0.463-1.973,1.213-3.037,1.68c-1.209,0.535-1.74,1.016-0.416,1.662
						c1.01,0.488,1.857,0.352,2.941,0.422c1.004,0.055,1.992,0.332,3.004,0.502c0.965,0.148,1.379,0.738,2.232,0.959
						c1.141,0.295,1.752-0.887,2.662-1.067c0.988-0.189,2.195,0.692,2.787,1.383c0.57,0.635,0.73,1.48,1.402,1.955
						c0.438,0.324,1.047,0.426,1.481,0.799c0.73,0.592,1.203,1.412,0.672,2.225c-0.508,0.807-1.186,0.453-1.857,0.066
						c-0.668-0.367-1.182-0.723-1.953-0.691c-0.354,0.02-0.854,0.051-1.166,0.209c-0.355,0.176-0.67,0.611-0.967,0.9
						C38.556,95.778,37.981,96.517,37.214,96.694z"/>
					<path style="fill:#7E8083;" d="M-7.501,83.149c-0.24,0.135-0.541,0.215-0.795,0.354c-0.412,0.262-0.727,0.654-1.184,0.881
						c-0.498,0.246-1.043,0.328-1.543,0.551c-0.771,0.352-1.301,1.09-2.113,1.275c0.221,0.287,0.414,0.629,0.789,0.752
						c0.217,0.07,0.453,0.008,0.674,0.027c0.178,0.033,0.354,0.131,0.514,0.139c0.219,0.02,0.277,0.027,0.434-0.199
						c0.154-0.197,0.203-0.443,0.398-0.621c0.313-0.283,0.75-0.266,1.164-0.266c0.592-0.012,1.104-0.041,1.621-0.334
						c0.549-0.338,1.144-0.473,1.752-0.654c0.619-0.176,1.209-0.436,1.82-0.652c0.85-0.273,1.754-0.137,2.645-0.176
						c0.338-0.012,1.525-0.068,1.5-0.533c-0.018-0.732-1.992-0.594-2.408-0.689c-0.451-0.1-0.926-0.238-1.381-0.396
						c-0.473-0.168-0.848-0.162-1.363-0.162c-0.316,0-0.652-0.045-0.945,0.023c-0.277,0.07-0.514,0.246-0.795,0.316
						C-7.011,82.864-7.229,82.991-7.501,83.149z"/>
					<path style="fill:#7E8083;" d="M-5.214,85.708c-0.457,0.322-0.1,0.393,0.258,0.502c0.332,0.098,0.908,0.188,1.127,0.535
						c0.311,0.549-0.418,0.65-0.834,0.68c-0.258,0.02-1.205-0.219-1.26,0.197c-0.023,0.367,1.578,0.092,1.914,0.137
						c0.254,0.043,0.711,0.393,0.49,0.733c-0.096,0.17-0.906,0.088-1.063,0.088c-0.418,0-0.912-0.105-1.342-0.027
						c-0.475,0.078-0.75,0.332-0.75,0.836c0.039,1.467,2.031,0.781,2.938,1.098c0.652,0.236,1.012,0.957,1.682,1.088
						c0.885,0.19,2.404,0.031,2.844-0.891c0.16-0.334,0.08-0.742,0.412-0.963c0.398-0.248,1.129-0.113,1.563-0.113
						c0.674,0,1.264-0.119,1.937-0.096c0.313,0.006,0.334,0.037,0.572,0.223c0.416,0.309,0.848,0.533,1.342,0.693
						c0.789,0.256,1.717,0.104,2.467-0.246c0.416-0.186,0.811-0.486,1.207-0.709c0.238-0.143,0.674-0.326,0.695-0.637
						c0.035-0.744-1.563-0.66-1.977-1.084c-0.517-0.533,0-1.311,0.393-1.738c0.199-0.227,0.475-0.396,0.668-0.633
						c0.141-0.176,0.4-0.771,0.262-0.988c-0.178-0.264-0.865-0.178-1.168-0.166c-0.416,0.016-0.767,0.137-1.027,0.514
						c-0.354,0.482-0.293,1.686-1.223,1.471c-0.494-0.133-0.67-0.621-0.73-1.094c0-0.111,0.061-0.34,0-0.428
						c-0.096-0.217-0.535-0.277-0.75-0.188c-0.236,0.102-0.434,0.357-0.689,0.477c-0.18,0.076-0.457,0.227-0.652,0.234
						c-0.539,0.027-1.244-0.277-1.76-0.451c-0.299-0.111-0.535-0.318-0.83-0.398c-0.395-0.109-0.988,0.01-1.402,0.049
						c-0.334,0.043-0.514,0.158-0.811,0.305c-0.492,0.27-1.125,0.18-1.674,0.174c-0.537-0.012-1.027-0.051-1.484,0.266
						c-0.195,0.137-0.432,0.137-0.668,0.215C-4.784,85.45-5.021,85.554-5.214,85.708z"/>
					<path style="fill:#7E8083;" d="M69.96,73.737c-2.213,0.496-4.189,1.826-6.479,2.254c-1.66,0.305-3.361,0.313-4.975,0.789
						c-0.916,0.266-2.313,1.266-1.463,2.379c0.945,1.254,4.9,0.275,6.455,0.516c1.58,0.227,3.516,1.65,4.586,2.793
						c0.967,1.043,1.203,3.16,1.297,4.565c0.145,2.406-2.006,3.998-3.176,5.726c-1.838,2.736,1.283,6.369,1.678,9.074
						c0.215,1.49,2.014,1.967,3.5,1.574c1.141-0.309,2.391-1.426,3.314-2.209c1.5-1.313,1.5-3.227,3.223-4.398
						c1.756-1.236,3.396-1.416,5.408-1.801c4.447-0.848,8.061-4.258,12.643-4.234c1.934,0,3.93,0.316,5.947,0.193
						c1.166-0.066,2.15-0.67,0.609-1.361c-1.184-0.533-2.311-0.375-2.311-2.084c0.021-1.424,1.09-1.23,2.137-0.707
						c0.648,0.334,2.346,1.914,3.219,1.357c1.359-0.85-0.498-1.678-1.066-1.953c-0.832-0.393-2.215-0.813-1.879-1.984
						c0.375-1.361,3.121-1.371,4.27-1.797c1.219-0.457,2.584-1.303,3.277-2.449c0.707-1.217,0.256-2.553,0.648-3.766
						c0.75-2.301,4.346-1.131,5.83-2.477c0.611-0.551,0.689-0.523-0.121-0.789c-1.147-0.385-2.727,0.227-3.893,0.299
						c-1.758,0.111-1.617-0.676-2.959-1.488c-1.463-0.896-4.012-0.392-5.689-0.392c-1.816,0-3.639-0.039-5.396,0.355
						c-2.623,0.592-4.957,2.025-7.775,2.016c-2.299-0.014-4.563-0.594-6.893-0.379c-3.027,0.281-6.006,0.094-8.992-0.014
						c-1.576-0.063-3.73-0.19-5.172,0.488"/>
					<path style="fill:#7E8083;" d="M117.622,112.085c-0.477-0.094-0.652-0.523-1.227-0.475c-0.494,0.031-0.951,0.322-1.385,0.514
						c-0.852,0.365-1.894,0.139-2.744-0.031c-0.514-0.107-0.908-0.166-1.367,0.158c-0.432,0.307-0.609,0.484-1.162,0.58
						c-0.613,0.111-0.791,0.141-1.207,0.547c-0.195,0.195-1.023,0.625-0.742,0.977c0.156,0.229,0.371,0,0.529-0.037
						c0.314-0.078,0.314-0.189,0.688-0.051c0.459,0.17,0.832,0.566,1.244,0.84c0.83,0.58,1.936,0.211,2.73-0.236
						c0.488-0.287,0.77-0.168,1.359-0.258c0.494-0.08,0.932-0.346,1.385-0.545c0.457-0.186,1.125-0.137,1.438-0.51
						c0.182-0.191,0.182-0.438,0.361-0.639c0.117-0.123,0.529-0.164,0.592-0.271c0.018-0.02,0.096-0.09,0.117-0.117
						c-0.18-0.162-0.516-0.488-0.771-0.496"/>
					<path style="fill:#7E8083;" d="M118.31,113.675c-0.533-0.266-0.951,0.504-1.242,0.82c-0.256,0.268-0.99,0.346-0.99,0.762
						c0.018,0.6,0.771,0.334,0.26,1.096c-0.281,0.412-0.713,0.754-0.809,1.27c-0.084,0.496-0.084,1.148,0.549,1.1
						c0.711-0.049,0.793-0.854,1.383-0.938c0.965-0.139,2.191,0.67,3.002-0.146c0.436-0.445,0.811-1.348,0.514-1.94
						c-0.275-0.58-1.064-0.801-1.639-1.127c-0.396-0.234-0.633-0.936-1.127-0.896"/>
					<path style="fill:#7E8083;" d="M119.853,112.972c-0.293,0-0.691-0.094-0.871,0.16c0.375,0.348,0.635,0.758,1.07,1.047
						c0.395,0.269,1.279,0.512,1.121-0.35c-0.574,0.014-0.275-0.559,0.178-0.51c0.059-0.789-1.479,0.059-1.559-0.441"/>
					<path style="fill:#7E8083;" d="M122.399,109.114c-0.279,0.461,0.057,1.211,0.373,1.588c0.137,0.178,0.258,0.1,0.338,0.395
						c0.08,0.326-0.18,0.545-0.18,0.836c0,0.756,0.672,0.684,1.205,0.803c0.529,0.107,0.596,0.316,0.969,0.691
						c0.451,0.463,0.451,0.674,0.43,1.381c-0.014,0.484-0.035,1.066-0.588,1.275c-0.517,0.199-0.869-0.059-1.301,0.465
						c-0.221,0.242-0.176,0.48-0.299,0.777c-0.135,0.459-0.438,0.594-0.732,0.9c0.576,0.217,2.568,0.158,2.096,1.197
						c-0.26,0.535-0.891,0.602-1.363,0.682c-0.352,0.063-1.342,0.354-1.484,0.738c-0.195,0.559,1.168,0.377,1.484,0.309
						c0.969-0.221,1.875-0.813,2.785-1.158c0.809-0.314,1.385-0.088,2.211-0.035c0.807,0.047,2.135-0.27,2.785-0.813
						c0.219-0.18,0.518-0.416,0.455-0.73c-0.061-0.262-0.336-0.266-0.475-0.445c-0.395-0.602,0.518-0.719,0.318-1.322
						c-0.16-0.525-0.736-0.219-1.15-0.258c-0.668-0.061-0.926-0.787-1.145-1.373c-0.275-0.75-0.254-1.785-0.705-2.428
						c-0.359-0.484-1.092-0.682-1.607-0.861c-0.295-0.098-0.963-0.178-1.125-0.432c-0.41-0.582,0.514-0.869,0.73-1.234
						c0.381-0.672-0.434-0.732-0.904-0.779c-0.279-0.024-0.553,0.008-0.73-0.231c-0.143-0.215-0.125-0.766-0.34-0.877
						c-0.158-0.08-0.588,0.076-0.748,0.139C123.269,108.448,122.638,108.679,122.399,109.114z"/>
					<path style="fill:#7E8083;" d="M146.335,95.187c-0.354,0.832,0.02,1.393-0.59,2.203c-1.24,1.682-3.639,1.787-5.51,2.184
						c-1.521,0.313-1.781,1.734-3.26,2.184c-0.08,1.488-0.176,4.408,0.949,5.529c1.5,1.471,4.502-1.217,6.277-0.793
						c1.322,0.314,1.027,1.348,1.363,2.281c0.316,0.881,1.777,2.252,2.668,2.58c1.186,0.445,2.705,0.08,3.379-0.998
						c0.609-0.949,0.254-2.023,1.084-2.832c0.748-0.717,1.342-1.082,1.502-2.213c0.221-1.676-0.77-1.143-1.678-2.066
						c-2.273-2.271,2.529-3.457,3.73-4.068c0.516-0.246,1.188-0.742,1.537-1.185c0.32-0.385,0.48-1.191,0.873-1.463
						c1.205-0.818,0.773,1.402,0.477,2.029c-0.791,1.693-2.43,3.465-0.594,5.268c1.559,1.533,3.336-0.068,5.035-0.203
						c0.867-0.068,2.275-0.238,3.084,0.018c0.551,0.186,1.615,1.49,1.285,2.096c-0.537,0.953-2.471,0.119-3.184-0.039
						c-0.432-0.1-2.764-0.357-3.057,0.02c-0.539,0.68,0.549,0.713,0.785,1.076c0.178,0.287,0.117,0.938,0.1,1.283
						c-0.018,0.938-0.498,1.828-1.58,1.473c-0.57-0.188-1.309-1.197-2.074-0.553c-0.496,0.385-0.553,1.885-0.496,2.459
						c0.084,0.742,0.555,1.996-0.389,2.578c-0.518,0.305-1.936,0.123-2.494-0.024c-0.791-0.207-1.361-0.732-2.271-0.582
						c-0.73,0.121-1.717,0.77-2.469,0.986c-1.857,0.539-4.422,0.289-6.416,0.193c-0.381-0.84-1.07-1.871-0.811-2.867
						c0.193-0.713,1.24-1.601,0.473-2.371c-0.516-0.5-1.934-0.229-2.432,0.326c-0.846,0.951-0.156,1.551,0.162,2.461
						c0.256,0.723,0.275,1.945-0.238,2.559c-0.691,0.844-1.918,0.342-2.902,0.572c-0.494,0.109-1.203,0.271-1.504,0.713
						c-0.295,0.441-0.039,1.092-0.674,1.471c-0.809,0.461-1.854,0.256-2.645,0.926c-1.422,1.174-2.762,2.645-4.285,3.621
						c-1.027,0.646-2.35,0.75-3.531,1.008c-1.252,0.258-2.061,0.523-3.402,0.605c-0.018,0.908-0.078,1.496,0.475,2.189
						c0.596,0.734,1.285,1.328,1.797,2.123c1.131,1.729,1.166,3.664-1.184,4.287c-2.078,0.563-4.389-0.404-6.541-0.297
						c-0.668,0.033-2.15-0.088-2.541,0.682c-0.498,0.928,0.807,1.938,1.359,2.48c0.395,0.402,1.088,0.742,1.424,1.184
						c0.748,1.074-0.158,3.172-0.715,4.168c-0.258,0.496-1.32,1.264-1.398,1.768c-0.381,2.035,2.232,3.25,3.711,3.578
						c1.283,0.264,3.691,0.984,4.998,0.594c1.443-0.436,2.82-2.604,3.357-4.004c0.832-2.123,0.51-3.186,2.627-4.471
						c0.752-0.459,1.758-0.484,2.428-1.217c0.648-0.732,0.574-2.035,1.283-2.637c1.066-0.889,3.656-0.266,4.998-0.9
						c2.195-1.018,2.451-1.646,4.744-0.096c2.012,1.363,3.83,2.963,5.705,4.365c1.441,1.064,0.951,0.957,1.361,2.604
						c0.279,1.012,0.971,2.598,1.801,3.201c1.104-1.057,1.973-2.42,1.615-3.945c0.754-0.045,1.566-0.014,2.314-0.064
						c1.025-4.236-9.898-4.08-9.244-8.998c1.342-0.363,1.6,0.449,2.607,0.871c0.711,0.316,1.836,0.285,2.506,0.67
						c0.967,0.547,0.951,1.217,1.758,1.955c0.576,0.535,1.324,0.508,1.998,0.982c2.764,1.924,0.211,7.354,6.143,6.961
						c-2.061,1.107,0.137,3.137,0.592,4.66c0.078-1.523,1.42-2.541,1.381-4.295c-0.018-1.949-1.008-2.473,1.209-3.172
						c1.418-0.455,2.961-0.484,4.344-0.996c2.113-0.773,1.816-0.844,1.246-2.975c-0.219-0.801-0.85-0.658-0.477-1.762
						c0.195-0.547,1.439-1.27,1.816-1.834c0.83-1.262,1.303-3.777,3.318-3.877c2.115-0.1,1.303,2.061,2.547,2.99
						c1.084,0.818,3.357,0.5,3.795-0.813c-3.416-1.006,0.813-1.863,1.816-2.367c0.652-0.309,1.578-1.748,2.35-1.047
						c0.908,0.854-0.83,2.152-0.93,2.637c-0.434,2.113,1.205,2.043,2.59,3.316c1.42,1.338,2.053,3.498,3.1,5.111
						c-2.09,0.127-4.424,0.262-6.299-0.604c-2.412-1.109-3.363-2.049-6.166-1.086c-0.869,0.285-1.738,0.738-2.541,1.162
						c-0.217,0.127-0.418,0.781-0.814,0.965c-0.416,0.209-1.125-0.145-1.586,0.023c-2.168,0.809-2.662,1.652-5.105,1.775
						c0.135,0.98,1.141,0.635,1.5,1.404c0.293,0.586,0,1.797,0,2.439c-0.023,2.143,0.195,2.164,2.408,2.262
						c2.627,0.137,3.354-0.021,5.549,1.541c2.566,1.846,2.545-0.238,4.541-1.563c2.352,0.92,0.018,3.152-0.555,4.398
						c-0.549,1.191-0.094,2.721-0.609,3.752c-1.006,2.094-5.217,0.984-7.15,0.984c-1.303,0-2.9,0.24-4.088-0.238
						c-1.381-0.563-2.371-1.693-4.012-2.139c-2.09-0.551-6.494-1.375-7.525,1.393c0.396,0.131,0.713,0.631,1.01,0.777
						c-0.848,1.373-3.615,0.514-4.723-0.238c-1.637-1.121-1.936-1.586-3.965-2.166c-1.979-0.586-3.955-1.486-4.959-3.33
						c-0.891-1.652-0.336-3.371-2.217-4.191c-0.982-0.445-1.201-0.344-2.174,0.02c-1.221,0.467-0.982,1.053-2.563,1.209
						c-1.76,0.178-3.592-0.1-5.357,0c-1.615,0.086-3.336,0.234-4.695,1.016c-0.828,0.48-1.086,1.332-2.432,1.559
						c-0.83,0.139-1.936,0.072-2.768-0.008c-1.973-0.189-5.252-1.828-6.85,0.455c-0.791,1.111-0.158,1.744-1.303,2.742
						c-0.953,0.832-2.414,1.117-3.086,2.291c-1.441,2.451,0.77,3.99-2.012,5.75c-2.59,1.627-3.869,2.242-5.375,4.967
						c-1.283,2.316-3.592,3.963-4.721,6.35c-0.787,1.637-0.213,3.426-0.197,5.158c0,3.77-3.416,5.625-0.945,9.5
						c0.93,1.467,2.35,2.633,3.18,4.164c0.848,1.602,0.965,3.525,1.66,5.184c1.32,3.072,6.637,7.328,9.758,8.623
						c2.488,1.047,3.773,0.287,5.666-0.723c1.898-0.98,3.73-0.719,5.807-0.619c3.262,0.146,5.119-3.744,8.908-1.947
						c1.818,0.857,1.602,2.186,3.756,2.586c1.955,0.357,3.674-0.051,4.76,2.098c1.377,2.725-0.418,5.637-0.5,8.404
						c-0.057,2.783,2.512,2.795,3.461,5.279c0.711,1.867,0.711,3.934,1.541,5.75c1.656,3.656,2.328,5.627,0.635,9.699
						c-1.268,3.082-1.916,6.805-0.145,9.891c2.035,3.527,2.51,6.936,3.082,10.947c0.262,1.846,0.156,3.67,0.871,5.283
						c0.867,1.943,2.785,3.729,3.301,5.744c0.529,2.174-0.398,4.426,0.611,6.551c1.041,2.19,2.465,1.824,4.563,1.522
						c3.373-0.475,7.266,0.176,10.307-1.68c1.465-0.908,2.332-1.967,3.303-3.42c1.283-1.914,2.15-2.537,4.027-3.811
						c1.836-1.236,2.9-2.688,2.941-4.898c0.059-2.633-0.629-3.359,2.092-4.756c1.721-0.887,3.219-1.613,3.063-3.953
						c-0.115-1.748-1.381-3.418-0.768-5.342c1.48-4.545,8.139-5.768,9.318-10.309c1.029-3.902-0.785-9.189-1.375-13.047
						c-1.252-8.1,5.824-11.576,10.996-16.387c2.748-2.559,4.365-6.744,6.205-9.992c0.77-1.324,1.814-2.836,1.162-4.357
						c-0.529-1.281-2.232-2.34-3.574-2.133c-2.035,0.324-3.262,1.086-5.529,0.986c-4.387-0.178-4.879-3.625-8.121-5.936
						c-3.043-2.174-3.689-5.547-5.949-8.469c-1.535-2.006-0.959-2.955-1.18-5.383c-0.178-2.172-1.539-2.498-3.158-3.754
						c-1.283-0.98-1.623-1.814-2.174-3.182c-0.613-1.508-2.135-3.551-2.389-5.096c-0.277-1.688,1.143-2.078,2.367-1.021
						c0.379,0.303-0.037,1.279,0.854,1.527c0.574,0.154,0.969-0.664,1.498-0.922c0.553,1.938,0.83,4.039,1.682,5.871
						c0.688,1.508,1.877,2.963,2.527,4.609c0.711,1.766,1.086,2.398,2.609,3.705c1.539,1.332,2.938,3.018,3.869,4.85
						c1.223,2.408,1.814,8.992,4.998,9.846c1.498,0.406,3.436-1.416,4.953-1.742c2.234-0.473,3.08-0.668,4.723-2.369
						c1.719-1.748,3.967-2.688,6.186-3.764c1.283-0.621,2.879-0.697,3.852-1.982c0.768-1.018,0.605-2.27,1.104-3.379
						c0.746-1.689,3.969-3.74,2.547-5.973c-1.344-2.094-4.225-0.988-4.998-3.92c-1.521-0.305-2.629,0.908-3.852,1.559
						c-1.695,0.895-2.863,1.037-4.725,0.197c-2.584-1.166-2.086-2.33-2.877-4.563c-0.514-1.451-2.098-2.232-1.76-3.93
						c2.881-0.156,3.516,0.32,5.137,2.586c1.105,1.582,1.934,2.934,3.949,3.129c1.758,0.162,3.494-0.967,5.152-0.598
						c1.699,0.395,2.729,2.111,4.584,2.576c1.857,0.473,3.895,0.057,5.709,0.777c0.689,0.277,1.303,0.971,2.012,1.166
						c0.971,0.258,1.979-0.447,2.727-0.316c1.842,0.297,2.275,2.441,3.381,3.875c1.52,1.982,2.449,1.578,4.738,1.816
						c2.727,0.273,1.938,1.471,2.195,3.711c0.215,2.176,1.479,3.693,2.367,5.629c0.869,1.938,2.094,3.814,2.805,5.711
						c0.711,1.875,0.852,3.854,1.58,5.773c0.791,2.016,2.037,4.031,4.131,2.197c0.672-0.596,1.066-1.959,1.734-2.67
						c0.734-0.797,1.801-1.498,2.273-2.537c0.75-1.682,0.174-3.963,0.338-5.775c0.219-2.621,1.414-3.252,3.767-4.318
						c0.891-0.404,2.219-0.809,2.963-1.57c1.012-1.016,0.834-2.113,1.424-3.178c0.932-1.66,4.227-2.844,6.08-2.764
						c3.379,0.145,5.16,2.436,6.541,5.234c0.451,0.896,1.264,3.959,2.313,4.232c1.459,0.408,2.254-2.26,3.475,0.219
						c0.516,0.986-0.156,2.014,0.08,3.01c0.275,1.199,1.359,1.785,1.74,2.885c0.711,1.977-0.871,3.723-0.635,5.6
						c0.18,1.463,1.832,2.422,2.486,3.754c1.701,3.557,2.568,6.447,5.787,9.105c5.355,4.393,2.514-3.564,1.129-6.031
						c-1.699-3.064-6.221-4.111-6.064-8.416c0.059-1.879,1.064-3.197,0.611-5.115c1.719,0.127,3.797,1.834,4.918,3.092
						c0.475,0.555,0.885,1.658,1.539,2.035c0.869,0.512,1.586-0.131,2.238,0.727c0.453,0.613-0.555,1.924,0.566,2.4
						c0.756,0.316,1.678-0.723,2.176-1.164c1.305-1.137,3.436-2.521,4.326-3.998c1.262-2.117,0.393-4.494-0.932-6.32
						c-1.596-2.197-4.186-2.146-6.061-3.934c-3.379-3.229-1.66-8.947,3.533-6.984c0.811,0.32,0.555,1.047,1.717,1.197
						c1.188,0.162,2.371-0.939,3.223-1.482c0.793-0.516,1.385-0.988,2.27-1.281c0.988-0.328,2.076-0.072,3.025-0.396
						c1.596-0.543,3.396-2.848,4.162-4.307c0.754-1.43,1.842-3.197,2.57-4.76c0.73-1.551,0.906-3.537,0.141-5.137
						c-0.338-0.701-1.088-1.041-1.344-1.785c-0.297-0.852,0.238-1.936-0.178-2.783c-0.852-1.701-3.539-1.758-4.705-3.398
						c-1.596-2.189,0.201-2.758,0.777-4.664c0.057-0.127,0.451-0.57,0.529-0.738c-1.779-1.109-5.668,0.396-6.557-1.242
						c-0.754-1.418,1.045-3.229,2.41-3.41c1.186-0.158,1.127,0.447,1.832,0.75c0.935,0.377,1.27,0.691,2.689,0.643
						c0.945-0.037,2.154-0.496,3.023-0.434c1.461,0.088,0.848,0.502,1.814,1.568c1.402,1.563,3.418,1.76,4.109,4.008
						c0.137,0.477-0.061,1.842,0.199,2.184c0.75,1.098,4.602,1.307,5.768,0.779c4.936-2.209-4.541-6.258-5.846-7.166
						c-2.314-1.582-0.539-2.768-0.121-4.898c0.26-1.301-0.219-1.336,0.789-1.984c0.713-0.457,1.996-0.129,2.787-0.83
						c1.992-1.758,1.461-8.258,1.186-10.844c-0.479-3.971-5.531-6.318-8.928-7.543c-1.684-0.596-3.162-1-3.363-3.15
						c-0.092-1.148,0.416-1.422,0.719-2.379c0.254-0.836,0.137-2.283,0.469-2.975c0.908-1.811,3.814-1.174,5.809-1.174
						c1.424,0,2.705-0.467,3.949-0.559c2.529-0.186,4.445,2.193,5.393-0.473c0.336-0.979-1.146-1.848-0.037-2.939
						c0.77-0.768,2.625-0.277,3.516-0.063c2.846,0.723,3.654,0.738,5.25-1.813c4.307,2.189,0.813,7.205,0.813,10.601
						c0,2.383,0.613,4.506,2.371,6.127c1.914,1.777,3.518,1.479,4.203,4.391c3.043-0.432,2.748-4.6,1.621-6.559
						c-0.57-0.996-1.185-2.805-1.773-3.563c-0.518-0.654-1.584-0.857-1.938-1.449c-1.184-2.045,0.373-4.111,2.646-4.762
						c0.889-0.258,1.975,0.184,2.902,0c1.678-0.346,2.096-1.117,3.435-2.182c0.85-0.674,3.717-1.924,3.42-3.359
						c-0.418-2.064-4.484-0.531-5.77-1.836c-2.271-2.313,2.963-1.709,4.443-1.336c2.113,0.518,3.674,1.602,6.023,0.754
						c0.869-3.352-2.746-2.471-4.754-2.389c-3.064,0.105-4.41-1.336-7.33-2.252c-2.529-0.789-5.318-1.07-7.902-1.639
						c-3.336-0.742-6.93-0.301-10.209-1.082c0.551,0.281,0.609,0.662,0.926,0.963c-3.73,1.381-10.131-0.277-13.965-0.891
						c-2.803-0.445-5.098-1.226-8.197-1.115c-3.121,0.115-4.426-0.951-7.387-1.859c-2.15-0.648-4.387-0.52-6.674-0.52
						c-1.109,0-4.461-0.627-5.395,0.047c-1.344,0.965,0.1,2.086-0.809,2.813c-1.977,1.59-7.272-0.068-9.281-0.678
						c-2.272-0.703-4.266-2.449-6.598-2.984c-4.129-0.936-8.91,0.84-13.076,0.021c-2.033-0.408-3.18-1.354-5.414-1.324
						c-1.994,0.018-4.029,0.891-6.025,0.752c0.146-1.766,2.789-1.975,3.318-3.883c-2.369,0.266-4.832-0.689-7.262-0.496
						c-2.373,0.199-4.25-0.588-6.363-0.608c-2.352-0.025-3.773,1.873-5.826,2.123c-2.096,0.254-4.484-0.604-6.777-0.496
						c0.715,3.535-3.217,2.881-6.121,3.701c0.635,3.279-3.219,2.51-4.994,3.102c0.746,2.145,2.566,1.729,2.307,4.85
						c-0.176,2.332-2.152,4.307-3.691,1.828c-1.402-2.283-0.256-10.192-5.234-9.256c-0.316,2.066,4.324,7.35-1.066,7.082
						c-3.277-0.146-6.025-3.521-9.482-3.121c0.455,0.652,1.164,1.166,1.881,1.82c-1.363,0.877-2.924,0.342-4.506,0.523
						c-1.223,0.139-2.271,0.746-3.455,0.807c-1.979,0.082-4.027-0.826-5.943-0.148c-0.854,0.301-1.166,1.396-1.879,1.631
						c-1.129,0.373-2.23-0.467-3.477,0.129c-1.342,0.641-2.371,2.172-3.773,2.922c-3.318,1.777-6.199-0.006-8.727-2.439
						c0.906-0.977,10.207,0.158,9.002-2.27c-0.986-1.998-8.588-1.174-10.564-1.682c-3.576-0.928-4.957-3.268-8.967-2.922
						C156.767,88.028,148.331,90.591,146.335,95.187z"/>
					<path style="fill:#7E8083;" d="M285.386,201.407c-0.355-0.219-1.367-0.455-1.244,0.328c0.059,0.316,0.596,0.623,0.793,0.83
						c0.295,0.313,0.512,0.682,0.783,1.004c0.496,0.572,1.031,1.027,1.506,1.613c0.555,0.654,1.559,1.174,1.834,1.932
						c0.139,0.346,0.022,0.686,0.098,1.031c0.123,0.406,0.475,0.789,0.736,1.117c0.473,0.619,1.105,1.193,1.521,1.855
						c0.254,0.402,0.275,0.736,0.434,1.254c0.473,1.508,1.184,3.074,2.307,4.213c0.914,0.912,1.82,1.82,2.586,2.928
						c0.381,0.551,0.674,1.391,1.547,1.289c0.691-0.076,1.24-1.104,1.676-1.588c0.313-0.316,0.434-0.227,0.611-0.732
						c0.141-0.484,0.1-1.25,0.063-1.77c-0.104-1.232-0.754-2.297-1.719-3.074c-0.895-0.73-2.529-1.545-3.082-2.609
						c-0.398-0.732-0.336-1.482-0.891-2.162c-0.594-0.713-1.52-0.959-2.23-1.51c-0.611-0.484-1.264-1.133-1.836-1.662
						c-0.986-0.928-1.205-2.498-2.688-2.883C287.501,202.632,285.466,202.456,285.386,201.407"/>
					<path style="fill:#7E8083;" d="M300.893,223.323c0.254,1.055,2.152,0.965,2.941,1.016c1.361,0.082,2.508,0.555,3.793,0.832
						c1.52,0.334,3.037,0.758,4.621,0.92c0.869,0.076,2.369,0.559,3.135,0.391c2.139-0.469-1.375-1.561-2.051-1.846
						c-1.443-0.611-2.826-1.67-4.461-1.521c-0.338,0.031-0.598,0.201-0.908,0.299c-1.346,0.426-2.768-0.506-4.029-0.883
						c-0.691-0.195-2.647-0.865-3.063,0.119C300.792,222.858,300.831,223.114,300.893,223.323z"/>
					<path style="fill:#7E8083;" d="M318.097,199.927c-0.142,1.1-1.307,1.988-2.238,2.338c-0.668,0.258-1.652,0.281-2.01,0.951
						c-0.318,0.604,0,1.129-0.473,1.773c-1.086,1.41-2.984,1.262-4.189,2.256c-0.475,0.377-0.637,0.801-1.205,0.996
						c-0.574,0.189-1.318-0.105-1.859-0.188c-0.272,1.027,1.264,1.758,1.561,2.666c0.336,0.939-0.055,1.939,0.199,2.869
						c0.197,0.678,1.185,2.182,1.881,2.441c0.902,0.361,2.049-0.016,2.996,0.35c0.772,0.285,1.484,0.645,2.254,0.947
						c0.277,0.113,1.008,0.586,1.262,0.613c0.934,0.104,0.99-0.877,1.103-1.705c0.201-1.26,0.162-2.307,1.111-3.291
						c0.59-0.643,1.44-0.873,1.797-1.738c0.234-0.574,0.021-1.482,0.435-1.986c0.494-0.563,1.359-0.139,1.522-0.979
						c0.254-1.4-3.082-1.873-1.738-3.967c0.512-0.781,1.084-0.646,1.143-1.777c0.041-0.801-0.135-1.186-0.766-1.709
						c-0.283-0.234-0.654-0.309-0.891-0.596c-0.215-0.229-0.197-0.748-0.44-0.912c-0.609-0.416-1.24,0.002-1.381,0.646"/>
					<path style="fill:#7E8083;" d="M338.413,196.47c-0.131,0.908,0.236,1.65,0.236,2.459c0.023,1.02-1.195,1.297-0.885,2.391
						c0.18,0.596,1.424,1.543,2.076,1.678c0.352,0.074,0.813-0.242,1.203-0.107c0.691,0.238,0.514,0.762,0.893,1.217
						c0.41,0.49,0.313,0.648,1.084,0.553c0.609-0.08,1.105-0.436,1.795-0.484c1.596-0.109,1.504-0.08,1.662-1.783
						c0.156-1.811,1.185-1.426,2.09-2.77c0.83-1.193,0.121-2.471-0.77-3.359c-0.373-0.361-0.553-0.561-0.709-0.986
						c-0.102-0.236-0.059-0.707-0.217-0.9c-0.336-0.426-1.58-0.432-2.291-0.391c-0.926,0.066-0.83,0.402-1.482,0.869
						c-0.688,0.492-1.557,0.568-2.35,0.826c-0.063,0.051,0.039,0.455,0.039,0.523c-0.021,0.297-0.234,0.324-0.512,0.367
						C340.095,196.593,338.413,196.438,338.413,196.47z"/>
					<path style="fill:#7E8083;" d="M344.44,213.356c0.516,0.523,1.365,0.316,1.879,0.998c0.412,0.576,0.295,1.434,0.256,2.186
						c-0.357,0.012-0.711,0.014-1.064,0.025c0.234,1.141,1.52,1.65,2.566,1.771c0.988,0.107,1.623,0.5,2.469,0.887
						c1.086,0.486,2.568,0.582,3.457,1.352c0.588,0.494,1.916,2.086,1.676,2.982c-0.947-0.064-2.033,0.281-1.877,1.348
						c0.221,1.352,1.52,0.727,2.592,0.963c1.34,0.299,2.352,1.674,3.652,1.771c1.344,0.096,1.756-0.76,2.373-1.691
						c0.826-1.24,1.375-1.094,2.504-0.217c0.867,0.67,1.582,1.273,2.074,2.303c0.473,0.988,0.689,1.889,1.758,2.396
						c0.973,0.459,2.33,0.617,3.338,0.773c0.436,0.063,0.947,0,1.402-0.018c0.609-2.799-4.383-3.172-5.373-5.066
						c-0.314-0.635-0.588-2.039-0.295-2.746c0.475-1.129,1.557-1.336,0.355-2.697c-2.055-2.322-5.549-1.906-7.74-3.834
						c-1.697-1.479-4.266-2.674-6.563-2.76c-1.6-0.08-1.813,0.463-2.664,1.459c-0.57,0.662-1.129,1.123-1.953,0.73
						c-1.207-0.561-1.303-1.953-1.895-2.975c-0.102-0.164-0.219-0.314-0.357-0.453c-0.418-0.404-1.01-0.492-1.559-0.52
						c-0.381-0.012-0.971-0.043-1.266,0.234C343.931,212.813,344.245,213.173,344.44,213.356z"/>
					<path style="fill:#7E8083;" d="M348.81,239.028c-1.98-1.709-0.438-3.227,0.906-4.664c0.551-0.604,1.619-1.371,0.693-2.051
						c-0.557-0.398-1.506-0.486-2.156-0.486c-0.885,0-1.842-0.1-2.709,0c-1.834,0.197-3.516,1.35-5.031,2.336
						c-0.398,0.258-0.871,0.498-1.209,0.797c-0.828,0.717-0.453,0.805-0.566,1.436c-0.18,1.082-0.793,2.459-2.352,1.574
						c-1.209-0.693-0.555-2.34-2.471-2.086c-1.164,0.15-1.9,1.059-2.629,1.963c-0.574,0.691-0.529,0.836-1.359,1.297
						c-0.932,0.523-1.406,0.379-1.424,1.281c-0.02,0.805,1.143,1.002-0.041,1.494c-0.688,0.295-1.576-0.334-2.07-0.74
						c0.06,2.574-2.311,5.035-4.803,5.504c-1.877,0.342-3.475,0.236-5.23,0.947c-1.148,0.473-2.436,0.777-3.557,1.389
						c-0.912,0.496-2.512,0.92-3.262,1.627c-0.99,0.947-0.555,2.279-0.336,3.41c0.517,2.728,0.828,5.58,0.693,8.314
						c-0.102,2.02,0.371,4.27,0.102,6.201c-0.262,1.898-2.332,3.025-2.613,5.039c2.055,1.264,3.971-0.336,5.732-1.215
						c2.603-1.303,5.846-0.297,8.57-1.41c2.195-0.902,2.65-3.084,5.236-2.906c3.199,0.219,6.08-0.266,9.32-0.147
						c0.811,2.289,1.445,6.09,4.645,3.645c0.547-0.426,3.336-2.193,2.33-0.023c-0.414,0.92-1.721,0.939-1.799,2.275
						c0.594,0,1.227-0.209,1.816-0.063c0.256,1.539,0.889,1.928,0.654,3.635c-0.219,1.32-0.934,2.43,0.672,2.787
						c1.461,0.328,2.805,0.016,4.088-0.406c0.592-0.178,1.359-0.309,1.895-0.139c0.691,0.234,0.236,0.889,1.283,0.842
						c0.908-0.041,1.125-0.842,1.855-1.094c0.873-0.291,1.266,0.232,1.994,0.283c1.785,0.088,2.432-0.793,2.924-2.252
						c1.047-3.271,3.91-4.131,6.223-6.596c1.223-1.301,2.25-2.332,3.635-3.408c1.381-1.08,1.66-1.977,1.971-3.607
						c0.559-2.656,1.723-4.617,1.049-7.373c-0.789-3.252-2.586-6.709-4.283-9.67c-0.732-1.287-1.797-1.611-2.826-2.576
						c-1.244-1.166-0.789-1.732-0.576-3.328c0.283-1.867-0.981-2.975-1.633-4.643c-0.535-1.354-1.027-3.627-0.99-5.109
						c-1.658-0.373-2.055,4.93-2.369,6.084c-0.65,2.344-0.435,5.482-3.793,5.385c-1.719-0.051-1.996-1.029-3.082-1.949
						C351.001,239.845,349.757,239.856,348.81,239.028z"/>
					<path style="fill:#7E8083;" d="M384.911,287.524c-1.145,0.642-2.605,0.75-3.772,1.193c-1.578,0.596-3.06,1.373-4.645,1.959
						c-1.045,0.389-2.625,0.531-2.504,1.986c0.039,0.449,0.473,1.211,0.689,1.596c0.572,0.945,0.811,0.73,1.682,0.088
						c1.201-0.869,2.209-1.607,3.572-2.182c1.516-0.631,2.51-1.508,3.85-2.352c1.086-0.68,2.453-0.639,3.559-1.23
						c1.162-0.631,3.654-2.23,2.467-3.815c-0.197-0.266-0.475-0.523-0.832-0.523c-0.193,0-0.397,0.131-0.609,0.166
						c-0.217,0.055-0.592,0-0.768,0.143c-0.162,0.096-0.162,0.361-0.338,0.451c-0.119,0.061-0.201,0-0.293,0.098
						c-0.103,0.094-0.18,0.264-0.26,0.367c-0.156,0.246-0.32,0.504-0.494,0.75C385.86,286.743,385.466,287.21,384.911,287.524z"/>
					<path style="fill:#7E8083;" d="M393.108,283.427c-0.137,0.609-0.314,0.738-0.711,1.211c0.414,0.34,1.682,0.416,2.232,0.301
						c0.91-0.17,1.381-0.959,2.035-1.59c0.943-0.889,2.801-1.682,3.256-2.904c0.615-1.578-1.283-1.443-1.797-2.656
						c-0.43-0.977-0.018-3.316-1.342-3.621c-0.061-0.023-0.08,1.379-0.061,1.506c0.041,0.496,0.102,0.988,0.141,1.484
						c0.078,0.973-0.039,1.943-0.733,2.695c-0.119,0.129-0.258,0.219-0.373,0.336c-0.082,0.09-0.1,0.156-0.238,0.209
						c-0.213,0.096-0.451,0.088-0.695,0.135c-0.172,0.039-0.451,0.051-0.586,0.145c-0.121,0.082-0.215,0.184-0.338,0.258
						c-0.375,0.264-0.83,0.58-0.869,1.039C392.991,282.46,393.19,282.944,393.108,283.427z"/>
					<path style="fill:#7E8083;" d="M346.731,285.962c-0.156,0.353-0.535,0.645-0.631,1c-0.076,0.207,0.02,0.324,0.02,0.512
						c0,0.228-0.139,0.277-0.178,0.467c-0.039,0.467,0.492,0.402,0.809,0.373c0.315-0.031,0.338-0.07,0.596,0.209
						c0.219,0.264,0.293,0.547,0.688,0.584c0.4,0.027,0.693-0.277,0.99-0.486c0.355-0.234,0.789-0.51,1.063-0.861
						c0.18-0.266,0.279-0.65,0.559-0.877c0.256-0.205,0.648-0.205,0.904-0.443c0.279-0.287,0.555-0.9,0.219-1.242
						c-0.254-0.281-1.103-0.416-1.48-0.389c-0.435,0.027-0.867,0.354-1.324,0.197c-0.455-0.158-0.748-0.658-1.246-0.752
						c-0.152-0.027-0.332,0.012-0.473,0.053c-0.078,0.01-0.156,0.029-0.234,0.029c-0.061,0-0.16-0.07-0.199-0.039
						c0.039,0.08,0.039,0.283,0.039,0.385c0.022,0.146,0.022,0.297,0.022,0.443C346.872,285.411,346.829,285.696,346.731,285.962z"
						/>
				</g>
			</g>
		</g>
		<g>
			<g>
				<path style="fill:#FFFFFF;" d="M162.991,133.075c-30.578,0-55.365,24.788-55.365,55.363c0,30.577,24.787,55.365,55.365,55.365
					c30.574,0,55.361-24.788,55.361-55.365C218.352,157.863,193.565,133.075,162.991,133.075z M162.991,234.278
					c-25.318,0-45.84-20.523-45.84-45.838c0-25.316,20.522-45.839,45.84-45.839c25.314,0,45.836,20.522,45.836,45.839
					C208.827,213.755,188.306,234.278,162.991,234.278z"/>
				<path style="fill:#D83633;" d="M205.054,188.438c0,23.232-18.832,42.064-42.063,42.064c-23.232,0-42.066-18.832-42.066-42.064
					c0-23.23,18.834-42.063,42.066-42.063C186.222,146.375,205.054,165.208,205.054,188.438z"/>
				<path style="fill:#D1D3D4;" d="M204.151,179.754c-0.148,0.874-0.326,1.743-0.555,2.604c-1.875,7.1-6.109,13.572-11.93,18.071
					c-9.658,7.464-27.656,5.923-37.186-0.86c-10.232-7.285-13.203-19.963-10.75-32.839c1.48-7.768,5.689-14.709,11.586-19.644
					c-19.566,3.607-34.393,20.743-34.393,41.352c0,23.232,18.834,42.064,42.066,42.064c23.23,0,42.063-18.832,42.063-42.064
					C205.054,185.461,204.741,182.557,204.151,179.754z"/>
				<g>
					<path style="fill:#D1D3D4;" d="M128.481,193.925c0-13.982,6.828-26.358,17.326-34.004c2.117-4.985,5.404-9.396,9.51-12.835
						c-19.566,3.607-34.393,20.743-34.393,41.352c0,15.667,8.57,29.322,21.275,36.562
						C133.77,217.308,128.481,206.234,128.481,193.925z"/>
				</g>
				<ellipse style="fill:#D1D3D4;" cx="173.19" cy="174.823" rx="21.156" ry="19.457"/>
			</g>
			<g>
				<polygon style="fill:#A7A9AC;" points="149.032,169.849 149.032,212.893 181.442,191.372 				"/>
				<g>
					<polygon style="fill:#FFFFFF;" points="151.02,165.149 151.02,208.194 182.901,186.672 					"/>
					<path style="fill:#BCBEC0;" d="M163.938,193.191c-7.045-6.074-11.939-16.634-12.918-26.663v41.666L168.64,196.3
						C166.925,195.417,165.329,194.389,163.938,193.191z"/>
				</g>
			</g>
		</g>
	</g>
	<g>
		<path style="fill:#1B232D;" d="M377.063,357.628c0,2.942-2.385,5.327-5.324,5.327H230.607c-2.943,0-5.324-2.385-5.324-5.327
			V122.49c0-2.939,2.381-5.324,5.324-5.324h141.131c2.94,0,5.324,2.385,5.324,5.324V357.628z"/>
		<path style="fill:#FFFFFF;" d="M297.084,125.201c0,0,4.105-0.144,11.283-0.395c3.592-0.108,7.949-0.24,12.953-0.395
			c2.498-0.071,5.16-0.149,7.967-0.229c2.801-0.077,5.752,0.023,8.83-0.005c6.152,0,12.824,0,19.873,0c1.762,0,3.551,0,5.361,0
			c0.455,0,0.906,0,1.363,0c0.469,0.011,0.852-0.026,1.484,0.045c1.084,0.12,2.143,0.538,3.027,1.192
			c0.887,0.655,1.607,1.545,2.057,2.571c0.227,0.509,0.375,1.052,0.461,1.606c0.037,0.274,0.064,0.555,0.068,0.838l0.002,0.724
			c0,1.888,0,3.795,0,5.719c0,15.387,0,31.8,0,48.211c0,32.826,0,65.652,0,90.27c0.004,1.538-0.008,3.045,0.01,4.518
			c0.016,1.473,0.022,2.914-0.018,4.315c-0.086,2.802-0.166,5.464-0.246,7.966c-0.143,4.998-0.277,9.359-0.387,12.95
			c-0.1,3.589-0.213,6.411-0.279,8.336c-0.072,1.921-0.105,2.945-0.105,2.945s-0.035-1.024-0.104-2.945
			c-0.066-1.925-0.18-4.747-0.279-8.336c-0.109-3.591-0.24-7.952-0.393-12.95c-0.078-2.502-0.152-5.164-0.238-7.966
			c-0.043-1.401-0.033-2.843-0.021-4.315c0.02-1.473,0.008-2.979,0.012-4.518c0-24.617,0-57.443,0-90.27c0-16.411,0-32.824,0-48.211
			c0-1.924,0-3.831,0-5.719l-0.004-0.691c0-0.192-0.02-0.384-0.043-0.569c-0.057-0.375-0.16-0.743-0.314-1.09
			c-0.297-0.691-0.791-1.295-1.389-1.741c-0.607-0.443-1.318-0.724-2.055-0.807c-0.277-0.043-0.811-0.025-1.246-0.028
			c-0.457,0-0.908,0-1.363,0c-1.811,0-3.6,0-5.361,0c-7.049,0-13.721,0-19.873,0c-3.078-0.025-6.029,0.074-8.83-0.006
			c-2.807-0.077-5.469-0.154-7.967-0.226c-5.004-0.154-9.361-0.286-12.953-0.395C301.189,125.35,297.084,125.201,297.084,125.201z"
			/>
		<path style="fill:#BCBEC0;" d="M376.674,356.424H235.543c-2.939,0-5.328-2.388-5.328-5.327V117.184
			c-2.76,0.2-4.932,2.499-4.932,5.307v235.138c0,2.942,2.381,5.327,5.324,5.327h141.131c2.94,0,5.324-2.385,5.324-5.327v-1.224
			C376.934,356.413,376.805,356.424,376.674,356.424z"/>
		<path style="fill:#00B9C5;" d="M364.435,335.759c0,2.454-1.99,4.441-4.443,4.441H242.354c-2.459,0-4.443-1.987-4.443-4.441
			V139.756c0-2.448,1.984-4.438,4.443-4.438h117.639c2.453,0,4.443,1.99,4.443,4.438V335.759z"/>
		<path style="fill:#D1D3D4;" d="M356.949,294.605c-21.414,3.175-42.863-4.583-59.853-17.422
			c-8.242-6.232-15.459-13.531-21.404-21.998c-6.133-8.738-11.094-18.255-15.209-28.097c-4.105-9.831-7.457-19.977-10.225-30.265
			c-3.066-11.386-6.188-22.83-7.848-34.521c-1.279-9.079-1.52-18.001-0.137-26.98c-2.416,0.04-4.363,2.011-4.363,4.433v196.003
			c0,2.454,1.984,4.441,4.443,4.441h117.639c2.453,0,4.443-1.987,4.443-4.441v-42.777
			C361.99,293.68,359.494,294.228,356.949,294.605z"/>
		<path style="fill:#FFFFFF;" d="M322.887,350.491c0,2.321-1.881,4.2-4.199,4.2h-35.029c-2.318,0-4.201-1.879-4.201-4.2l0,0
			c0-2.316,1.883-4.198,4.201-4.198h35.029C321.006,346.293,322.887,348.175,322.887,350.491L322.887,350.491z"/>
		<path style="fill:#BCBEC0;" d="M320.703,350.491c0,1.473-1.418,2.665-3.174,2.665h-32.715c-1.754,0-3.176-1.192-3.176-2.665l0,0
			c0-1.47,1.422-2.662,3.176-2.662h32.715C319.285,347.829,320.703,349.021,320.703,350.491L320.703,350.491z"/>
		<g>
			<rect x="266.996" y="124.412" style="fill:#FFFFFF;" width="39.479" height="3.951"/>
			<path style="fill:#FFFFFF;" d="M323.717,126.256c0,1.164-0.941,2.107-2.105,2.107c-1.16,0-2.103-0.943-2.103-2.107
				c0-1.16,0.943-2.102,2.103-2.102C322.775,124.154,323.717,125.096,323.717,126.256z"/>
		</g>
		<g>
			<rect x="251.684" y="205.008" style="fill:#00142A;" width="98.98" height="65.505"/>
			<g>
				<rect x="251.684" y="264.453" width="98.98" height="6.06"/>
				<path style="fill:#FFFFFF;" d="M347.662,267.481c0,0.44-0.355,0.798-0.795,0.798h-91.52c-0.436,0-0.795-0.357-0.795-0.798l0,0
					c0-0.438,0.359-0.795,0.795-0.795h91.52C347.307,266.686,347.662,267.044,347.662,267.481L347.662,267.481z"/>
				<g>
					<path style="fill:#EC524F;" d="M267.939,266.686h-12.592c-0.436,0-0.795,0.357-0.795,0.795c0,0.44,0.359,0.798,0.795,0.798
						h12.592V266.686z"/>
					<path style="fill:#ED1C24;" d="M269.102,267.427c0,0.85-0.689,1.536-1.539,1.536c-0.846,0-1.535-0.686-1.535-1.536
						c0-0.849,0.689-1.535,1.535-1.535C268.412,265.892,269.102,266.578,269.102,267.427z"/>
				</g>
			</g>
			<g>
				<polygon style="fill:#EC524F;" points="297.736,228.781 297.736,243.253 308.453,236.016 				"/>
				<path style="fill:#FFFFFF;" d="M301.172,215.88c-11.123,0-20.141,9.016-20.141,20.136c0,11.123,9.018,20.143,20.141,20.143
					c11.123,0,20.141-9.02,20.141-20.143C321.313,224.895,312.295,215.88,301.172,215.88z M301.172,248.411
					c-6.846,0-12.393-5.55-12.393-12.396c0-6.843,5.547-12.39,12.393-12.39c6.846,0,12.391,5.547,12.391,12.39
					C313.563,242.861,308.017,248.411,301.172,248.411z"/>
			</g>
		</g>
	</g>
</g>
</svg>
